<svg fill="currentColor" xmlns="http://www.w3.org/2000/svg"  viewBox="0 0 64 64" width="50px" height="50px"><path d="M 13 6 C 9.134 6 6 9.134 6 13 L 6 51 C 6 54.866 9.134 58 13 58 L 51 58 C 54.866 58 58 54.866 58 51 L 58 13 C 58 9.134 54.866 6 51 6 L 13 6 z M 13 8 L 51 8 C 53.761 8 56 10.239 56 13 L 56 51 C 56 53.761 53.761 56 51 56 L 13 56 C 10.239 56 8 53.761 8 51 L 8 13 C 8 10.239 10.239 8 13 8 z M 12 12.007812 A 1.0001 1.0001 0 0 0 11.015625 13.021484 L 11.015625 15.021484 A 1.0001 1.0001 0 1 0 13.015625 15.021484 L 13.015625 13.021484 A 1.0001 1.0001 0 0 0 12 12.007812 z M 16.994141 12.007812 A 1.0001 1.0001 0 0 0 16.009766 13.021484 L 16.009766 15.021484 A 1.0001 1.0001 0 1 0 18.009766 15.021484 L 18.009766 13.021484 A 1.0001 1.0001 0 0 0 16.994141 12.007812 z M 21.988281 12.007812 A 1.0001 1.0001 0 0 0 21.003906 13.021484 L 21.003906 15.021484 A 1.0001 1.0001 0 1 0 23.003906 15.021484 L 23.003906 13.021484 A 1.0001 1.0001 0 0 0 21.988281 12.007812 z M 26.980469 12.007812 A 1.0001 1.0001 0 0 0 25.996094 13.021484 L 25.996094 15.021484 A 1.0001 1.0001 0 1 0 27.996094 15.021484 L 27.996094 13.021484 A 1.0001 1.0001 0 0 0 26.980469 12.007812 z M 31.974609 12.007812 A 1.0001 1.0001 0 0 0 30.988281 13.021484 L 30.988281 15.021484 A 1.0001 1.0001 0 1 0 32.988281 15.021484 L 32.988281 13.021484 A 1.0001 1.0001 0 0 0 31.974609 12.007812 z M 36.96875 12.007812 A 1.0001 1.0001 0 0 0 35.982422 13.021484 L 35.982422 15.021484 A 1.0001 1.0001 0 1 0 37.982422 15.021484 L 37.982422 13.021484 A 1.0001 1.0001 0 0 0 36.96875 12.007812 z M 41.960938 12.007812 A 1.0001 1.0001 0 0 0 40.976562 13.021484 L 40.976562 15.021484 A 1.0001 1.0001 0 1 0 42.976562 15.021484 L 42.976562 13.021484 A 1.0001 1.0001 0 0 0 41.960938 12.007812 z M 46.953125 12.007812 A 1.0001 1.0001 0 0 0 45.96875 13.021484 L 45.96875 15.021484 A 1.0001 1.0001 0 1 0 47.96875 15.021484 L 47.96875 13.021484 A 1.0001 1.0001 0 0 0 46.953125 12.007812 z M 51.947266 12.007812 A 1.0001 1.0001 0 0 0 50.962891 13.021484 L 50.962891 15.021484 A 1.0001 1.0001 0 1 0 52.962891 15.021484 L 52.962891 13.021484 A 1.0001 1.0001 0 0 0 51.947266 12.007812 z M 19.5 18 C 18.083334 18 16.893559 18.567256 16.126953 19.429688 C 15.360347 20.292119 15 21.402778 15 22.5 C 15 23.597222 15.360347 24.707882 16.126953 25.570312 C 16.893559 26.432744 18.083334 27 19.5 27 C 20.916666 27 22.106441 26.432744 22.873047 25.570312 C 23.639653 24.707881 24 23.597222 24 22.5 C 24 21.402778 23.639653 20.292118 22.873047 19.429688 C 22.106441 18.567256 20.916666 18 19.5 18 z M 19.5 20 C 20.416666 20 20.976893 20.307744 21.376953 20.757812 C 21.777013 21.207881 22 21.847222 22 22.5 C 22 23.152778 21.777013 23.792118 21.376953 24.242188 C 20.976893 24.692256 20.416666 25 19.5 25 C 18.583334 25 18.023107 24.692256 17.623047 24.242188 C 17.222987 23.792119 17 23.152778 17 22.5 C 17 21.847222 17.222987 21.207882 17.623047 20.757812 C 18.023107 20.307744 18.583334 20 19.5 20 z M 41.230469 27 C 38.579615 27 36.393807 28.047353 34.773438 29.068359 C 34.582256 28.179442 33.889201 27.449219 32.947266 27.449219 L 27.976562 27.449219 C 26.894582 27.449219 26.001953 28.350179 26.001953 29.429688 L 26.001953 50.001953 C 26.001953 51.081462 26.894582 51.980469 27.976562 51.980469 L 33.25 51.980469 C 34.331981 51.980469 35.226562 51.081462 35.226562 50.001953 L 35.226562 39.636719 C 35.226562 38.276402 35.612723 37.179035 36.152344 36.460938 C 36.691964 35.74284 37.339069 35.40625 38.023438 35.40625 C 38.674635 35.40625 39.137495 35.708889 39.578125 36.462891 C 40.018755 37.216892 40.314453 38.409006 40.314453 39.802734 L 40.314453 50.019531 C 40.314453 51.09904 41.209035 52 42.291016 52 L 47.564453 52 C 48.646434 52 49.539062 51.09904 49.539062 50.019531 L 49.539062 38.066406 C 49.539063 35.350833 49.004062 32.666451 47.683594 30.566406 C 46.363125 28.466362 44.146842 27 41.230469 27 z M 16 28 A 1.0001 1.0001 0 0 0 15 29 L 15 51 A 1.0001 1.0001 0 0 0 16 52 L 23 52 A 1.0001 1.0001 0 0 0 24 51 L 24 29 A 1.0001 1.0001 0 0 0 23 28 L 16 28 z M 41.230469 29 C 43.518095 29 44.956703 29.987154 45.990234 31.630859 C 47.023766 33.274565 47.539062 35.622979 47.539062 38.066406 L 47.539062 50 L 42.314453 50 L 42.314453 39.802734 C 42.314453 38.140463 41.994557 36.633624 41.304688 35.453125 C 40.614817 34.272626 39.43224 33.40625 38.023438 33.40625 C 36.647805 33.40625 35.397114 34.136113 34.552734 35.259766 C 33.708355 36.383419 33.226563 37.902035 33.226562 39.636719 L 33.226562 49.980469 L 28.001953 49.980469 L 28.001953 29.449219 L 32.923828 29.449219 L 32.923828 30.732422 A 1.0001 1.0001 0 0 0 34.570312 31.494141 C 35.514312 30.690685 38.522346 29 41.230469 29 z M 17 30 L 22 30 L 22 50 L 17 50 L 17 30 z"/></svg>