<?xml version="1.0"?><svg fill="currentColor" xmlns="http://www.w3.org/2000/svg"  viewBox="0 0 64 64"><path d="M 5 2 C 3.35 2 2 3.35 2 5 L 2 35 C 2 36.65 3.35 38 5 38 L 24 38 L 24 57 C 24 58.65 25.35 60 27 60 L 57 60 C 58.65 60 60 58.65 60 57 L 60 27 C 60 25.35 58.65 24 57 24 L 38 24 L 38 5 C 38 3.35 36.65 2 35 2 L 5 2 z M 5 4 L 35 4 C 35.55 4 36 4.45 36 5 L 36 35 C 36 35.55 35.55 36 35 36 L 5 36 C 4.45 36 4 35.55 4 35 L 4 5 C 4 4.45 4.45 4 5 4 z M 19.988281 8.9707031 C 19.435281 8.9707031 18.988281 9.4177031 18.988281 9.9707031 L 18.988281 11.970703 L 10.988281 11.970703 C 10.435281 11.970703 9.9882812 12.417703 9.9882812 12.970703 C 9.9882812 13.523703 10.435281 13.970703 10.988281 13.970703 L 22.988281 13.970703 L 22.988281 14.970703 C 22.988281 17.078703 21.649297 19.861203 19.529297 22.283203 C 18.036297 20.510203 16.988281 18.544703 16.988281 16.970703 C 16.988281 16.417703 16.541281 15.970703 15.988281 15.970703 C 15.435281 15.970703 14.988281 16.417703 14.988281 16.970703 C 14.988281 19.071703 16.274953 21.556703 18.126953 23.720703 C 16.547953 25.173703 14.687594 26.384734 12.683594 27.052734 C 12.160594 27.226734 11.875781 27.791406 12.050781 28.316406 C 12.190781 28.734406 12.581 29 13 29 C 13.104 29 13.211406 28.982266 13.316406 28.947266 C 15.611406 28.182266 17.717047 26.810203 19.498047 25.158203 C 21.819047 27.364203 24.642281 28.970703 26.988281 28.970703 C 27.541281 28.970703 27.988281 28.523703 27.988281 27.970703 C 27.988281 27.417703 27.541281 26.970703 26.988281 26.970703 C 25.179281 26.970703 22.854438 25.588375 20.898438 23.734375 C 23.415437 20.896375 24.988281 17.557703 24.988281 14.970703 L 24.988281 13.970703 L 28.988281 13.970703 C 29.541281 13.970703 29.988281 13.523703 29.988281 12.970703 C 29.988281 12.417703 29.541281 11.970703 28.988281 11.970703 L 20.988281 11.970703 L 20.988281 9.9707031 C 20.988281 9.4177031 20.541281 8.9707031 19.988281 8.9707031 z M 41 18 C 40.447 18 40 18.447 40 19 L 40 21 C 40 21.553 40.447 22 41 22 C 41.553 22 42 21.553 42 21 L 42 19 C 42 18.447 41.553 18 41 18 z M 46 18 C 45.447 18 45 18.447 45 19 L 45 21 C 45 21.553 45.447 22 46 22 C 46.553 22 47 21.553 47 21 L 47 19 C 47 18.447 46.553 18 46 18 z M 51 18 C 50.447 18 50 18.447 50 19 L 50 21 C 50 21.553 50.447 22 51 22 C 51.553 22 52 21.553 52 21 L 52 19 C 52 18.447 51.553 18 51 18 z M 56 18 C 55.447 18 55 18.447 55 19 L 55 21 C 55 21.553 55.447 22 56 22 C 56.553 22 57 21.553 57 21 L 57 19 C 57 18.447 56.553 18 56 18 z M 38 26 L 57 26 C 57.55 26 58 26.45 58 27 L 58 57 C 58 57.55 57.55 58 57 58 L 27 58 C 26.45 58 26 57.55 26 57 L 26 38 L 35 38 C 36.65 38 38 36.65 38 35 L 38 26 z M 42.388672 32.970703 C 41.972672 32.970703 41.598172 33.228187 41.451172 33.617188 L 35.052734 50.617188 C 34.857734 51.134188 35.117766 51.710297 35.634766 51.904297 C 36.151766 52.098297 36.729828 51.839266 36.923828 51.322266 L 38.9375 45.96875 L 45.837891 45.96875 L 47.851562 51.322266 C 48.001562 51.722266 48.382109 51.96875 48.787109 51.96875 C 48.904109 51.96875 49.023625 51.947297 49.140625 51.904297 C 49.657625 51.710297 49.919609 51.134187 49.724609 50.617188 L 43.324219 33.617188 C 43.178219 33.227187 42.804672 32.970703 42.388672 32.970703 z M 42.388672 36.808594 L 45.085938 43.970703 L 39.691406 43.970703 L 42.388672 36.808594 z M 6 40 C 5.447 40 5 40.447 5 41 L 5 43 C 5 43.553 5.447 44 6 44 C 6.553 44 7 43.553 7 43 L 7 41 C 7 40.447 6.553 40 6 40 z M 11 40 C 10.447 40 10 40.447 10 41 L 10 43 C 10 43.553 10.447 44 11 44 C 11.553 44 12 43.553 12 43 L 12 41 C 12 40.447 11.553 40 11 40 z M 16 40 C 15.447 40 15 40.447 15 41 L 15 43 C 15 43.553 15.447 44 16 44 C 16.553 44 17 43.553 17 43 L 17 41 C 17 40.447 16.553 40 16 40 z M 21 40 C 20.447 40 20 40.447 20 41 L 20 43 C 20 43.553 20.447 44 21 44 C 21.553 44 22 43.553 22 43 L 22 41 C 22 40.447 21.553 40 21 40 z"/></svg>