<svg fill="currentColor" xmlns="http://www.w3.org/2000/svg"  viewBox="0 0 50 50" width="50px" height="50px"><path d="M 20 2 A 1.0001 1.0001 0 0 0 19.119141 2.5273438 L 16.431641 7.5273438 A 1.0001 1.0001 0 0 0 16.337891 8.2207031 L 16.939453 10.873047 L 8.4316406 26 L 6.625 26 A 1.0001 1.0001 0 0 0 5.7539062 26.509766 L 0.12890625 36.509766 A 1.0001 1.0001 0 0 0 0.10546875 37.447266 L 2.1054688 41.447266 A 1.0001 1.0001 0 0 0 3 42 L 8 42 L 9.0078125 42 L 10.730469 45.447266 A 1.0001 1.0001 0 0 0 11.625 46 L 28.443359 46 L 30.501953 49.505859 A 1.0001 1.0001 0 1 0 32.226562 48.494141 L 30.761719 46 L 45 46 A 1.0001 1.0001 0 0 0 45.894531 45.447266 L 49.894531 37.447266 A 1.0001 1.0001 0 0 0 49.871094 36.509766 L 31.871094 4.5097656 A 1.0001 1.0001 0 0 0 31 4 L 28.617188 4 L 27.894531 2.5527344 A 1.0001 1.0001 0 0 0 27 2 L 20 2 z M 20.597656 4 L 26.382812 4 L 27.105469 5.4472656 A 1.0001 1.0001 0 0 0 28 6 L 30.416016 6 L 47.869141 37.027344 L 44.382812 44 L 29.162109 44 A 1.0001 1.0001 0 0 0 28.960938 43.988281 A 1.0001 1.0001 0 0 0 28.851562 44 L 12.242188 44 L 11.242188 42 L 12.601562 42 A 1.0001 1.0001 0 0 0 12.867188 42 L 26.035156 42 L 26.398438 42 A 1.0001 1.0001 0 0 0 26.972656 42 L 27.765625 42 C 28.123625 42 28.453813 41.808047 28.632812 41.498047 L 30.644531 38 L 44 38 A 1.0001 1.0001 0 0 0 44.863281 36.494141 L 34.054688 18.054688 A 1.0001 1.0001 0 0 0 33.863281 17.728516 L 27.863281 7.4941406 A 1.0001 1.0001 0 0 0 27.041016 7 A 1.0001 1.0001 0 0 0 26.132812 7.5019531 L 20.105469 17.970703 A 1.0001 1.0001 0 0 0 19.955078 18.230469 L 15.863281 25.337891 A 1.0001 1.0001 0 0 0 15.660156 25.689453 L 7.421875 40 L 3.6171875 40 L 2.1308594 37.027344 L 7.2089844 28 L 9.015625 28 A 1.0001 1.0001 0 0 0 9.8867188 27.490234 L 18.871094 11.517578 A 1.0001 1.0001 0 0 0 18.974609 10.806641 L 18.371094 8.1445312 L 20.597656 4 z M 27.007812 9.9921875 L 31.943359 18.412109 L 26.990234 27.011719 L 26.208984 25.681641 A 1.0001 1.0001 0 0 0 25.998047 25.322266 L 22.050781 18.601562 L 27.007812 9.9921875 z M 33.107422 20.398438 L 39.322266 31 L 27.001953 31 L 27.712891 29.765625 A 1.0001 1.0001 0 0 0 27.998047 29.273438 L 33.107422 20.398438 z M 20.902344 20.595703 L 23.490234 25 L 21.523438 25 A 1.0001 1.0001 0 0 0 21.390625 24.988281 A 1.0001 1.0001 0 0 0 21.234375 25 L 18.367188 25 L 20.902344 20.595703 z M 17.214844 27 L 19.646484 27 L 18.816406 28.439453 A 1.0001 1.0001 0 0 0 18.816406 28.441406 A 1.0001 1.0001 0 0 0 18.716797 28.615234 L 12.162109 40 L 9.7304688 40 L 17.214844 27 z M 19.640625 31.019531 L 24.917969 40 L 14.470703 40 L 19.640625 31.019531 z M 23.123047 33 L 40.496094 33 L 42.253906 36 L 24.884766 36 L 23.123047 33 z M 26.060547 38 L 28.335938 38 L 27.210938 39.957031 L 26.060547 38 z"/></svg>