<svg fill="currentColor" xmlns="http://www.w3.org/2000/svg"  viewBox="0 0 24 24" width="auto" height="auto"><path d="M 2.625 0 C 1.178 0 0 1.178 0 2.625 L 0 21.375 C 0 22.822 1.178 24 2.625 24 L 21.375 24 C 22.822 24 24 22.822 24 21.375 L 24 2.625 C 24 1.178 22.822 0 21.375 0 L 2.625 0 z M 2.625 1.5 L 21.375 1.5 C 21.995 1.5 22.5 2.005 22.5 2.625 L 22.5 21.375 C 22.5 21.995 21.995 22.5 21.375 22.5 L 2.625 22.5 C 2.005 22.5 1.5 21.995 1.5 21.375 L 1.5 2.625 C 1.5 2.005 2.005 1.5 2.625 1.5 z M 6.2402344 4.5 C 5.8262344 4.5 5.4902344 4.836 5.4902344 5.25 L 5.4902344 18.75 C 5.4902344 19.164 5.8262344 19.5 6.2402344 19.5 L 12.644531 19.5 C 13.610531 19.5 14.464688 19.391734 15.179688 19.177734 C 15.901687 18.964734 16.523344 18.653813 17.027344 18.257812 C 17.529344 17.865812 17.925828 17.351531 18.173828 16.769531 C 18.204828 16.699531 18.220562 16.625781 18.226562 16.550781 C 18.413562 16.045781 18.509766 15.516609 18.509766 14.974609 C 18.509766 13.898609 18.241844 12.979281 17.714844 12.238281 C 17.455844 11.875281 17.136766 11.572031 16.759766 11.332031 C 16.940766 11.163031 17.103094 10.977344 17.246094 10.777344 C 17.680094 10.167344 17.900391 9.4346562 17.900391 8.5976562 C 17.900391 7.2326562 17.417844 6.1825625 16.464844 5.4765625 C 15.589844 4.8285625 14.427719 4.5 13.011719 4.5 L 6.2402344 4.5 z M 6.9902344 6 L 13.013672 6 C 14.101672 6 14.960312 6.2286406 15.570312 6.6816406 C 16.135312 7.0996406 16.400391 7.7087031 16.400391 8.5957031 C 16.400391 9.1217031 16.276438 9.5502969 16.023438 9.9042969 C 15.764438 10.267297 15.379906 10.556719 14.878906 10.761719 C 14.596906 10.876719 14.410156 11.195 14.410156 11.5 C 14.410156 11.857 14.661719 12.163375 15.011719 12.234375 C 15.677719 12.370375 16.175234 12.664422 16.490234 13.107422 C 16.833234 13.588422 17.007812 14.215656 17.007812 14.972656 C 17.007812 15.381656 16.928531 15.779297 16.769531 16.154297 C 16.742531 16.216297 16.725797 16.278797 16.716797 16.341797 C 16.567797 16.623797 16.357563 16.874219 16.101562 17.074219 C 15.744562 17.354219 15.290047 17.578281 14.748047 17.738281 C 14.170047 17.912281 13.461578 18 12.642578 18 L 6.9902344 18 L 6.9902344 6 z M 8.7441406 6.5 C 8.3301406 6.5 7.9941406 6.836 7.9941406 7.25 L 7.9941406 10.25 C 7.9941406 10.664 8.3301406 11 8.7441406 11 L 12.382812 11 C 13.040813 11 13.632609 10.830766 14.099609 10.509766 C 14.118609 10.498766 14.13725 10.485656 14.15625 10.472656 C 14.71025 10.071656 15.003906 9.4741406 15.003906 8.7441406 C 15.003906 7.7361406 14.563266 7.2227031 14.197266 6.9707031 C 13.747266 6.6587031 13.137813 6.5 12.382812 6.5 L 8.7441406 6.5 z M 9.4941406 8 L 12.382812 8 C 12.935812 8 13.210703 8.110125 13.345703 8.203125 C 13.481703 8.298125 13.503906 8.5811875 13.503906 8.7421875 C 13.503906 9.0221875 13.414547 9.1484219 13.310547 9.2324219 C 13.297547 9.2404219 13.284484 9.2488125 13.271484 9.2578125 C 13.050484 9.4178125 12.752812 9.5 12.382812 9.5 L 9.4941406 9.5 L 9.4941406 8 z M 8.7441406 12.029297 C 8.3301406 12.029297 7.9941406 12.365297 7.9941406 12.779297 L 7.9941406 16.226562 C 7.9941406 16.640563 8.3301406 16.976562 8.7441406 16.976562 L 12.966797 16.976562 C 13.857797 16.976563 14.577422 16.770234 15.107422 16.365234 C 15.694422 15.916234 16.005859 15.263797 16.005859 14.466797 C 15.995859 13.679797 15.679797 13.039281 15.091797 12.613281 C 15.060797 12.591281 15.030047 12.571687 14.998047 12.554688 C 14.475047 12.201688 13.805125 12.029297 12.953125 12.029297 L 8.7441406 12.029297 z M 9.4941406 13.529297 L 12.955078 13.529297 C 13.514078 13.529297 13.930359 13.628266 14.193359 13.822266 C 14.215359 13.839266 14.239672 13.855141 14.263672 13.869141 C 14.382672 13.970141 14.501859 14.136609 14.505859 14.474609 C 14.505859 14.884609 14.340312 15.062828 14.195312 15.173828 C 13.933313 15.374828 13.520797 15.476562 12.966797 15.476562 L 9.4941406 15.476562 L 9.4941406 13.529297 z"/></svg>