<svg fill="currentColor" xmlns="http://www.w3.org/2000/svg"  viewBox="0 0 50 50"><path d="M 22 2 C 22 2 22.019531 3.949219 22 4.601563 C 22 4.617188 22.109375 5.890625 21.277344 8.132813 C 20.722656 9.546875 19.636719 10.484375 18.90625 10.746094 C 10.328125 13.351563 5 20.117188 5 28.402344 C 5 39.207031 13.972656 48 25 48 C 36.027344 48 45 39.207031 45 28.402344 C 45 19.449219 38.628906 12.113281 29.144531 10.128906 L 29.117188 10.125 C 28.597656 9.984375 27.375 9.894531 24 5 C 23.488281 4.257813 22 2 22 2 Z M 23.515625 7.75 C 26.09375 11.167969 27.464844 11.773438 28.589844 12.054688 L 28.75 12.09375 L 28.808594 12.105469 C 37.300781 13.90625 43 20.449219 43 28.402344 C 43 38.105469 34.925781 46 25 46 C 15.074219 46 7 38.105469 7 28.402344 C 7 21.03125 11.785156 14.996094 19.488281 12.65625 L 19.53125 12.644531 L 19.578125 12.628906 C 20.78125 12.203125 22.347656 10.875 23.152344 8.828125 C 23.292969 8.445313 23.414063 8.085938 23.515625 7.75 Z M 20.597656 24 C 16.476563 24 13 26.761719 13 30.597656 C 13 32.351563 13.558594 33.976563 15.144531 35.03125 C 16.570313 35.976563 18.378906 36.117188 19.691406 35.996094 C 22.859375 35.699219 25.25 34.457031 27.070313 33.359375 C 28.886719 32.265625 30.203125 31.480469 30.75 31.5 C 30.84375 31.507813 31.25 31.660156 31.722656 32.007813 C 32.203125 32.359375 32.761719 32.859375 33.316406 33.378906 C 33.875 33.902344 34.433594 34.4375 34.984375 34.878906 C 35.53125 35.320313 36.015625 35.734375 36.824219 35.796875 C 37.570313 35.855469 38.3125 35.695313 38.890625 35.296875 C 39.46875 34.902344 39.882813 34.375 40.390625 33.707031 C 41.632813 32.097656 42 29.941406 42 28.597656 C 42 27.859375 41.871094 26.941406 41.359375 26.085938 C 40.84375 25.230469 39.816406 24.5 38.5 24.5 C 37.699219 24.5 37.023438 24.816406 36.308594 25.195313 C 35.59375 25.574219 34.863281 26.046875 34.144531 26.511719 C 33.429688 26.972656 32.726563 27.417969 32.121094 27.734375 C 31.511719 28.050781 30.992188 28.199219 30.800781 28.199219 L 30.777344 28.199219 L 30.753906 28.203125 C 30.5 28.210938 30.003906 28.0625 29.363281 27.710938 C 28.726563 27.359375 27.960938 26.835938 27.09375 26.292969 C 25.367188 25.203125 23.210938 24 20.597656 24 Z M 20.597656 26 C 22.589844 26 24.382813 26.949219 26.03125 27.984375 C 26.851563 28.503906 27.632813 29.035156 28.402344 29.460938 C 28.785156 29.675781 29.222656 29.695313 29.625 29.832031 C 28.4375 30.183594 27.328125 30.871094 26.035156 31.648438 C 24.308594 32.691406 22.25 33.746094 19.503906 34.003906 C 18.597656 34.089844 17 33.863281 16.253906 33.367188 C 15.167969 32.644531 15 32.046875 15 30.597656 C 15 27.953125 17.324219 26 20.597656 26 Z M 38.5 26.5 C 39.183594 26.5 39.40625 26.71875 39.640625 27.113281 C 39.878906 27.511719 40 28.136719 40 28.597656 C 40 29.457031 39.566406 31.5 38.808594 32.488281 C 38.316406 33.125 37.980469 33.5 37.757813 33.652344 C 37.535156 33.800781 37.433594 33.839844 36.984375 33.800781 L 36.96875 33.800781 C 37.082031 33.8125 36.679688 33.679688 36.234375 33.320313 C 35.792969 32.960938 35.25 32.449219 34.683594 31.917969 C 34.113281 31.386719 33.519531 30.839844 32.90625 30.390625 C 32.566406 30.144531 32.148438 30.066406 31.769531 29.902344 C 32.191406 29.773438 32.628906 29.722656 33.042969 29.511719 C 33.769531 29.132813 34.507813 28.65625 35.230469 28.191406 C 35.949219 27.726563 36.648438 27.277344 37.246094 26.960938 C 37.839844 26.644531 38.347656 26.5 38.5 26.5 Z M 30.824219 30.191406 C 30.828125 30.191406 30.835938 30.199219 30.84375 30.199219 L 30.800781 30.199219 C 30.808594 30.199219 30.816406 30.195313 30.824219 30.191406 Z M 30.605469 35 C 28.976563 35 27.800781 35.621094 27.097656 36.261719 C 26.394531 36.902344 26.09375 37.625 26.09375 37.625 C 25.886719 38.136719 26.132813 38.71875 26.648438 38.929688 C 27.160156 39.136719 27.742188 38.886719 27.949219 38.375 C 27.949219 38.375 28.050781 38.097656 28.445313 37.738281 C 28.839844 37.378906 29.457031 37 30.605469 37 C 31.628906 37 32.171875 37.359375 32.535156 37.714844 C 32.898438 38.070313 33.003906 38.359375 33.003906 38.359375 C 33.125 38.703125 33.421875 38.953125 33.78125 39.011719 C 34.140625 39.074219 34.503906 38.933594 34.730469 38.648438 C 34.957031 38.363281 35.011719 37.980469 34.871094 37.640625 C 34.871094 37.640625 34.59375 36.929688 33.933594 36.285156 C 33.269531 35.640625 32.148438 35 30.605469 35 Z M 32.976563 40.015625 C 32.785156 40.023438 32.601563 40.082031 32.441406 40.191406 C 31.382813 40.902344 29.882813 41.886719 27.296875 41.609375 C 25.1875 41.386719 24.210938 40.804688 23.71875 40.328125 C 23.324219 39.941406 22.691406 39.945313 22.304688 40.34375 C 21.917969 40.738281 21.925781 41.371094 22.324219 41.757813 C 23.199219 42.613281 24.667969 43.34375 27.082031 43.597656 C 30.285156 43.941406 32.449219 42.597656 33.558594 41.851563 C 33.933594 41.605469 34.097656 41.140625 33.964844 40.714844 C 33.828125 40.285156 33.425781 40 32.976563 40.015625 Z"/></svg>