<svg fill="currentColor" xmlns="http://www.w3.org/2000/svg"  viewBox="0 0 64 64" width="64px" height="64px"><path d="M 13 2 C 12.448 2 12 2.448 12 3 L 12 40 L 11 40 C 10.448 40 10 40.448 10 41 L 9.9550781 42.537109 C 9.6870781 42.634109 9.4269063 42.742766 9.1289062 42.884766 L 8.0507812 41.808594 C 7.6597812 41.417594 7.0277188 41.417594 6.6367188 41.808594 L 3.8066406 44.636719 C 3.4156406 45.027719 3.4156406 45.659781 3.8066406 46.050781 L 4.8632812 47.171875 C 4.7432812 47.427875 4.6334375 47.689953 4.5234375 48.001953 L 3 48.001953 C 2.448 48.001953 2 48.449953 2 49.001953 L 2 53.001953 C 2 53.553953 2.448 54.001953 3 54.001953 L 4.5371094 54.044922 C 4.6341094 54.312922 4.7427656 54.575047 4.8847656 54.873047 L 3.8085938 55.949219 C 3.4175937 56.340219 3.4175937 56.972281 3.8085938 57.363281 L 6.6367188 60.193359 C 7.0277188 60.584359 7.6597813 60.584359 8.0507812 60.193359 L 9.171875 59.136719 C 9.427875 59.256719 9.6899531 59.366563 10.001953 59.476562 L 10.001953 61 C 10.001953 61.552 10.449953 62 11.001953 62 L 15.001953 62 C 15.553953 62 16.001953 61.552 16.001953 61 L 16.044922 59.462891 C 16.312922 59.365891 16.575047 59.257234 16.873047 59.115234 L 17.949219 60.191406 C 18.340219 60.582406 18.972281 60.582406 19.363281 60.191406 L 21.556641 58 L 61 58 C 61.552 58 62 57.552 62 57 L 62 3 C 62 2.448 61.552 2 61 2 L 13 2 z M 14 4 L 28 4 L 28 12 L 14 12 L 14 4 z M 30 4 L 44 4 L 44 12 L 30 12 L 30 4 z M 46 4 L 60 4 L 60 12 L 46 12 L 46 4 z M 20 7 L 20 9 L 22 9 L 22 7 L 20 7 z M 34 7 L 34 9 L 36 9 L 36 7 L 34 7 z M 38 7 L 38 9 L 40 9 L 40 7 L 38 7 z M 48 7 L 48 9 L 50 9 L 50 7 L 48 7 z M 52 7 L 52 9 L 54 9 L 54 7 L 52 7 z M 56 7 L 56 9 L 58 9 L 58 7 L 56 7 z M 13.998047 14 L 14 14 L 28 14 L 28 56 L 22.226562 56 C 22.212563 55.984 22.207359 55.964219 22.193359 55.949219 L 21.136719 54.830078 C 21.256719 54.574078 21.366563 54.312 21.476562 54 L 23 54 C 23.552 54 24 53.552 24 53 L 24 49 C 24 48.448 23.552 48 23 48 L 21.462891 47.955078 C 21.365891 47.687078 21.257234 47.426906 21.115234 47.128906 L 22.191406 46.050781 C 22.582406 45.659781 22.582406 45.027719 22.191406 44.636719 L 19.363281 41.808594 C 18.972281 41.417594 18.340219 41.417594 17.949219 41.808594 L 16.828125 42.863281 C 16.572125 42.743281 16.310047 42.635391 15.998047 42.525391 L 15.998047 41 C 15.998047 40.448 15.550047 40 14.998047 40 L 13.998047 40 L 13.998047 14 z M 30 14 L 44 14 L 44 56 L 30 56 L 30 14 z M 46 14 L 60 14 L 60 56 L 46 56 L 46 14 z M 17 16 C 16.448 16 16 16.448 16 17 L 16 24 C 16 24.552 16.448 25 17 25 L 25 25 C 25.552 25 26 24.552 26 24 L 26 17 C 26 16.448 25.552 16 25 16 L 17 16 z M 33 16 C 32.448 16 32 16.448 32 17 L 32 24 C 32 24.552 32.448 25 33 25 L 41 25 C 41.552 25 42 24.552 42 24 L 42 17 C 42 16.448 41.552 16 41 16 L 33 16 z M 49 16 C 48.448 16 48 16.448 48 17 L 48 24 C 48 24.552 48.448 25 49 25 L 57 25 C 57.552 25 58 24.552 58 24 L 58 17 C 58 16.448 57.552 16 57 16 L 49 16 z M 18 18 L 24 18 L 24 23 L 18 23 L 18 18 z M 34 18 L 40 18 L 40 23 L 34 23 L 34 18 z M 50 18 L 54.339844 18 L 50 21.796875 L 50 18 z M 56 19.203125 L 56 23 L 51.660156 23 L 56 19.203125 z M 33 27 C 32.448 27 32 27.448 32 28 L 32 35 C 32 35.552 32.448 36 33 36 L 41 36 C 41.552 36 42 35.552 42 35 L 42 28 C 42 27.448 41.552 27 41 27 L 33 27 z M 49 27 C 48.448 27 48 27.448 48 28 L 48 35 C 48 35.552 48.448 36 49 36 L 57 36 C 57.552 36 58 35.552 58 35 L 58 28 C 58 27.448 57.552 27 57 27 L 49 27 z M 34 29 L 40 29 L 40 34 L 34 34 L 34 29 z M 50 29 L 54.339844 29 L 50 32.796875 L 50 29 z M 56 30.203125 L 56 34 L 51.660156 34 L 56 30.203125 z M 33 38 C 32.448 38 32 38.448 32 39 L 32 46 C 32 46.552 32.448 47 33 47 L 41 47 C 41.552 47 42 46.552 42 46 L 42 39 C 42 38.448 41.552 38 41 38 L 33 38 z M 34 40 L 40 40 L 40 45 L 34 45 L 34 40 z M 12 42 L 14 42 L 14 42.523438 C 14 43.377437 14.537188 44.122922 15.367188 44.419922 C 15.576187 44.494922 15.780516 44.580828 15.978516 44.673828 C 16.778516 45.050828 17.685109 44.902828 18.287109 44.298828 L 18.65625 43.927734 L 20.072266 45.34375 L 19.701172 45.712891 C 19.097172 46.315891 18.950172 47.222484 19.326172 48.021484 C 19.420172 48.220484 19.506078 48.424812 19.580078 48.632812 C 19.877078 49.463813 20.622563 50 21.476562 50 L 22 50 L 22 52 L 21.476562 52 C 20.622563 52 19.877078 52.537188 19.580078 53.367188 C 19.505078 53.576188 19.419172 53.780516 19.326172 53.978516 C 18.950172 54.777516 19.097172 55.684109 19.701172 56.287109 L 20.072266 56.65625 L 18.65625 58.070312 L 18.287109 57.701172 C 17.684109 57.097172 16.777516 56.951172 15.978516 57.326172 C 15.779516 57.420172 15.575188 57.504125 15.367188 57.578125 C 14.536188 57.876125 14 58.622563 14 59.476562 L 14 60 L 12 60 L 12 59.476562 C 12 58.622563 11.462813 57.877078 10.632812 57.580078 C 10.423813 57.505078 10.219484 57.419172 10.021484 57.326172 C 9.2224844 56.950172 8.3158906 57.097172 7.7128906 57.701172 L 7.34375 58.072266 L 5.9277344 56.65625 L 6.2988281 56.287109 C 6.9028281 55.684109 7.0498281 54.777516 6.6738281 53.978516 C 6.5808281 53.779516 6.4949219 53.575188 6.4199219 53.367188 C 6.1229219 52.536187 5.3774375 52 4.5234375 52 L 4 52 L 4 50 L 4.5234375 50 C 5.3774375 50 6.1229219 49.462812 6.4199219 48.632812 C 6.4949219 48.423812 6.5808281 48.219484 6.6738281 48.021484 C 7.0498281 47.222484 6.9028281 46.315891 6.2988281 45.712891 L 5.9277344 45.34375 L 7.34375 43.927734 L 7.7128906 44.298828 C 8.3168906 44.902828 9.2234844 45.049828 10.021484 44.673828 C 10.220484 44.579828 10.424812 44.493922 10.632812 44.419922 C 11.463812 44.122922 12 43.377437 12 42.523438 L 12 42 z M 13 46 C 10.243 46 8 48.243 8 51 C 8 53.757 10.243 56 13 56 C 15.757 56 18 53.757 18 51 C 18 48.243 15.757 46 13 46 z M 13 48 C 14.654 48 16 49.346 16 51 C 16 52.654 14.654 54 13 54 C 11.346 54 10 52.654 10 51 C 10 49.346 11.346 48 13 48 z"/></svg>