<svg fill="currentColor" xmlns="http://www.w3.org/2000/svg"  viewBox="0 0 50 50" width="50px" height="50px"><path d="M 25 2 C 22.958944 2 21.257722 3.0817588 18.769531 4.3105469 C 16.28134 5.5393349 12.965946 7.019544 7.7910156 8.1269531 L 7 8.296875 L 7 9.1054688 C 7 21.119382 11.364516 29.231968 15.744141 34.287109 C 20.123765 39.342251 24.580078 41.408203 24.580078 41.408203 L 25 41.601562 L 25.419922 41.408203 C 25.419922 41.408203 29.876235 39.342251 34.255859 34.287109 C 38.635484 29.231968 43 21.119382 43 9.1054688 L 43 8.296875 L 42.208984 8.1269531 C 37.034054 7.019544 33.71866 5.5393349 31.230469 4.3105469 C 28.742278 3.0817588 27.041056 2 25 2 z M 25 4 C 26.264704 4 27.794742 4.8437287 30.345703 6.1035156 C 32.735313 7.2836193 36.123867 8.713422 40.933594 9.8359375 C 40.74955 20.925594 36.769569 28.330249 32.744141 32.976562 C 28.964681 37.338969 25.588772 39.051193 25 39.339844 C 24.411228 39.051193 21.035319 37.338969 17.255859 32.976562 C 13.230431 28.330249 9.2504497 20.925594 9.0664062 9.8359375 C 13.876133 8.713422 17.264687 7.2836193 19.654297 6.1035156 C 22.205258 4.8437287 23.735296 4 25 4 z M 25 14.535156 A 2.68605 2.68605 0 0 0 23.554688 19.482422 L 22.314453 25.279297 L 27.685547 25.279297 L 26.445312 19.484375 A 2.68605 2.68605 0 0 0 27.685547 17.220703 A 2.68606 2.68606 0 0 0 25 14.535156 z M 3 20 C 2.0833335 20 1.268559 20.379756 0.75195312 20.960938 C 0.23534721 21.542119 0 22.277778 0 23 C 0 23.722222 0.23534721 24.457882 0.75195312 25.039062 C 1.268559 25.620244 2.0833335 26 3 26 C 3.2482664 26 3.4873778 25.968185 3.7167969 25.916016 L 8.2792969 30.689453 A 0.99135 0.99135 0 0 0 9 31 L 10.929688 31 C 10.529687 30.36 10.149531 29.69 9.7695312 29 L 9.4296875 29 L 5.4199219 24.802734 C 5.808522 24.263755 6 23.629972 6 23 C 6 22.277778 5.7646528 21.542118 5.2480469 20.960938 C 4.731441 20.379756 3.9166665 20 3 20 z M 47 20 C 46.083334 20 45.268559 20.379756 44.751953 20.960938 C 44.235347 21.542119 44 22.277778 44 23 C 44 23.629972 44.191478 24.263755 44.580078 24.802734 L 40.570312 29 L 40.230469 29 C 39.850469 29.69 39.470312 30.36 39.070312 31 L 41 31 A 0.99135 0.99135 0 0 0 41.720703 30.689453 L 46.283203 25.916016 C 46.512622 25.968185 46.751734 26 47 26 C 47.916666 26 48.731441 25.620244 49.248047 25.039062 C 49.764653 24.457881 50 23.722222 50 23 C 50 22.277778 49.764653 21.542118 49.248047 20.960938 C 48.731441 20.379756 47.916666 20 47 20 z M 3 22 C 3.4166663 22 3.6018927 22.120244 3.7519531 22.289062 C 3.9020136 22.457881 4 22.722222 4 23 C 4 23.277778 3.9020136 23.542118 3.7519531 23.710938 C 3.6018927 23.879756 3.4166663 24 3 24 C 2.5833337 24 2.3981073 23.879756 2.2480469 23.710938 C 2.0979864 23.542119 2 23.277778 2 23 C 2 22.722222 2.0979864 22.457882 2.2480469 22.289062 C 2.3981073 22.120244 2.5833337 22 3 22 z M 47 22 C 47.416666 22 47.601893 22.120244 47.751953 22.289062 C 47.902014 22.457881 48 22.722222 48 23 C 48 23.277778 47.90201 23.542118 47.751953 23.710938 C 47.601893 23.879756 47.416666 24 47 24 C 46.583334 24 46.398107 23.879756 46.248047 23.710938 C 46.097986 23.542119 46 23.277778 46 23 C 46 22.722222 46.097986 22.457882 46.248047 22.289062 C 46.398107 22.120244 46.583334 22 47 22 z M 4 32 C 3.0833335 32 2.268559 32.379756 1.7519531 32.960938 C 1.2353472 33.542119 1 34.277778 1 35 C 1 35.722222 1.2353472 36.457881 1.7519531 37.039062 C 2.268559 37.620244 3.0833335 38 4 38 C 4.9166665 38 5.731441 37.620244 6.2480469 37.039062 C 6.523973 36.728646 6.7154423 36.372969 6.8378906 36 L 14.630859 36 C 14.070859 35.38 13.520234 34.71 12.990234 34 L 6.8378906 34 C 6.7154423 33.627031 6.523973 33.271354 6.2480469 32.960938 C 5.731441 32.379756 4.9166665 32 4 32 z M 46 32 C 45.083334 32 44.268559 32.379756 43.751953 32.960938 C 43.476027 33.271354 43.284558 33.627031 43.162109 34 L 37.009766 34 C 36.479766 34.71 35.929141 35.38 35.369141 36 L 43.162109 36 C 43.284558 36.372969 43.476027 36.728646 43.751953 37.039062 C 44.268559 37.620244 45.083334 38 46 38 C 46.916666 38 47.731441 37.620244 48.248047 37.039062 C 48.764653 36.457881 49 35.722222 49 35 C 49 34.277778 48.764653 33.542119 48.248047 32.960938 C 47.731441 32.379756 46.916666 32 46 32 z M 4 34 C 4.4166663 34 4.6018927 34.120244 4.7519531 34.289062 C 4.9020136 34.457881 5 34.722222 5 35 C 5 35.277778 4.9020136 35.542119 4.7519531 35.710938 C 4.6018927 35.879756 4.4166663 36 4 36 C 3.5833337 36 3.3981073 35.879756 3.2480469 35.710938 C 3.0979864 35.542119 3 35.277778 3 35 C 3 34.722222 3.0979864 34.457881 3.2480469 34.289062 C 3.3981073 34.120244 3.5833337 34 4 34 z M 46 34 C 46.416666 34 46.601893 34.120244 46.751953 34.289062 C 46.902014 34.457881 47 34.722222 47 35 C 47 35.277778 46.90201 35.542119 46.751953 35.710938 C 46.601893 35.879756 46.416666 36 46 36 C 45.583334 36 45.398107 35.879756 45.248047 35.710938 C 45.097986 35.542119 45 35.277778 45 35 C 45 34.722222 45.097986 34.457881 45.248047 34.289062 C 45.398107 34.120244 45.583334 34 46 34 z M 12.986328 38 A 0.99135 0.99135 0 0 0 12.279297 38.310547 L 7.7167969 43.083984 C 7.4873778 43.031815 7.2482664 43 7 43 C 6.0833335 43 5.268559 43.379755 4.7519531 43.960938 C 4.2353472 44.542119 4 45.277778 4 46 C 4 46.722222 4.2353472 47.457881 4.7519531 48.039062 C 5.268559 48.620244 6.0833335 49 7 49 C 7.9166665 49 8.731441 48.620245 9.2480469 48.039062 C 9.7646528 47.457881 10 46.722222 10 46 C 10 45.370028 9.808522 44.736245 9.4199219 44.197266 L 13.429688 40 L 18.730469 40 C 18.020469 39.42 17.279766 38.75 16.509766 38 L 13 38 A 0.99135 0.99135 0 0 0 12.986328 38 z M 33.490234 38 C 32.720234 38.75 31.979531 39.42 31.269531 40 L 36.570312 40 L 40.580078 44.197266 C 40.191478 44.736245 40 45.370028 40 46 C 40 46.722222 40.235347 47.457881 40.751953 48.039062 C 41.268559 48.620244 42.083334 49 43 49 C 43.916666 49 44.731441 48.620245 45.248047 48.039062 C 45.764653 47.457881 46 46.722222 46 46 C 46 45.277778 45.764653 44.542119 45.248047 43.960938 C 44.731441 43.379756 43.916666 43 43 43 C 42.751734 43 42.512622 43.031815 42.283203 43.083984 L 37.720703 38.310547 A 0.99135 0.99135 0 0 0 37 38 L 33.490234 38 z M 7 45 C 7.4166663 45 7.6018927 45.120245 7.7519531 45.289062 C 7.9020136 45.457881 8 45.722222 8 46 C 8 46.277778 7.9020136 46.542119 7.7519531 46.710938 C 7.6018927 46.879756 7.4166663 47 7 47 C 6.5833337 47 6.3981073 46.879755 6.2480469 46.710938 C 6.0979864 46.542119 6 46.277778 6 46 C 6 45.722222 6.0979864 45.457881 6.2480469 45.289062 C 6.3981073 45.120244 6.5833337 45 7 45 z M 43 45 C 43.416666 45 43.601893 45.120245 43.751953 45.289062 C 43.902014 45.457881 44 45.722222 44 46 C 44 46.277778 43.90201 46.542119 43.751953 46.710938 C 43.601893 46.879756 43.416666 47 43 47 C 42.583334 47 42.398107 46.879755 42.248047 46.710938 C 42.097986 46.542119 42 46.277778 42 46 C 42 45.722222 42.097986 45.457881 42.248047 45.289062 C 42.398107 45.120244 42.583334 45 43 45 z"/></svg>