<svg fill="currentColor" xmlns="http://www.w3.org/2000/svg"  viewBox="0 0 50 50" width="auto" height="auto"><path d="M 2.8125 0 C 1.277344 0 0 1.277344 0 2.8125 L 0 7.8125 C -0.0078125 7.875 -0.0078125 7.9375 0 8 L 0 40 C 0 40.550781 0.449219 41 1 41 L 24 41 C 24.359375 41.003906 24.695313 40.816406 24.878906 40.503906 C 25.058594 40.191406 25.058594 39.808594 24.878906 39.496094 C 24.695313 39.183594 24.359375 38.996094 24 39 L 2 39 L 2 9 L 42 9 L 42 25 C 41.996094 25.359375 42.183594 25.695313 42.496094 25.878906 C 42.808594 26.058594 43.191406 26.058594 43.503906 25.878906 C 43.816406 25.695313 44.003906 25.359375 44 25 L 44 8 C 44.007813 7.9375 44.007813 7.875 44 7.8125 L 44 2.8125 C 44 1.277344 42.722656 0 41.1875 0 Z M 2.8125 2 L 41.1875 2 C 41.652344 2 42 2.347656 42 2.8125 L 42 7 L 2 7 L 2 2.8125 C 2 2.347656 2.347656 2 2.8125 2 Z M 7 15 L 7 17 L 11 17 L 11 15 Z M 14 15 L 14 17 L 37 17 L 37 15 Z M 7 20 L 7 22 L 11 22 L 11 20 Z M 14 20 L 14 22 L 37 22 L 37 20 Z M 7 25 L 7 27 L 11 27 L 11 25 Z M 14 25 L 14 27 L 28 27 L 28 25 Z M 36 26 C 30.488281 26 26 30.488281 26 36 C 26 41.511719 30.488281 46 36 46 C 38.394531 46 40.589844 45.160156 42.3125 43.75 L 48.28125 49.71875 L 49.71875 48.28125 L 43.75 42.3125 C 45.160156 40.589844 46 38.394531 46 36 C 46 30.488281 41.511719 26 36 26 Z M 36 28 C 40.429688 28 44 31.570313 44 36 C 44 40.429688 40.429688 44 36 44 C 31.570313 44 28 40.429688 28 36 C 28 31.570313 31.570313 28 36 28 Z M 7 30 L 7 32 L 11 32 L 11 30 Z M 14 30 L 14 32 L 24 32 L 24 30 Z"/></svg>