<?xml version="1.0" encoding="UTF-8" standalone="no"?>
<!DOCTYPE svg PUBLIC "-//W3C//DTD SVG 1.1//EN" "http://www.w3.org/Graphics/SVG/1.1/DTD/svg11.dtd">
<svg fill="currentColor" width="auto" height="auto" viewBox="0 0 32 32" version="1.1" xmlns="http://www.w3.org/2000/svg" xmlns:xlink="http://www.w3.org/1999/xlink" xml:space="preserve" xmlns:serif="http://www.serif.com/" style="fill-rule:evenodd;clip-rule:evenodd;stroke-linejoin:round;stroke-miterlimit:2;">
    <path d="M31.7,5.653C31.7,2.533 29.167,0 26.047,0L5.653,0C2.533,0 0,2.533 0,5.653L0,26.047C0,29.167 2.533,31.7 5.653,31.7L26.047,31.7C29.167,31.7 31.7,29.167 31.7,26.047L31.7,5.653ZM30.697,6.656C30.697,3.536 28.164,1.003 25.044,1.003L6.656,1.003C3.536,1.003 1.003,3.536 1.003,6.656L1.003,25.044C1.003,28.164 3.536,30.697 6.656,30.697L25.044,30.697C28.164,30.697 30.697,28.164 30.697,25.044L30.697,6.656Z"/>
    <g transform="matrix(1,0,0,1,0,-0.299805)">
        <path d="M21.979,9.862L11.162,9.862L11.162,15.266L16.576,15.266C16.663,15.266 16.734,15.336 16.734,15.424L16.734,20.837L22.137,20.837L22.137,10.02C22.137,9.933 22.067,9.862 21.979,9.862Z"/>
    </g>
    <g transform="matrix(1,0,0,1,0,-0.299805)">
        <path d="M11.163,9.862L11.163,15.265L5.95,15.265C5.88,15.265 5.845,15.18 5.895,15.13L11.163,9.862Z" style="fill-opacity:0.42;"/>
    </g>
    <g transform="matrix(1,0,0,1,0,-0.299805)">
        <path d="M16.869,26.106C16.82,26.155 16.735,26.12 16.735,26.05L16.735,20.837L22.138,20.837L16.869,26.106Z" style="fill-opacity:0.42;"/>
    </g>
    <g transform="matrix(1,0,0,1,0,-0.299805)">
        <path d="M11.164,15.265L16.657,15.265C16.701,15.265 16.736,15.301 16.736,15.345L16.736,20.837L11.322,20.837C11.235,20.837 11.164,20.767 11.164,20.679L11.164,15.265Z" style="fill-opacity:0.42;fill-rule:nonzero;"/>
    </g>
</svg>
