<?xml version="1.0" encoding="UTF-8" standalone="no"?>
<!DOCTYPE svg PUBLIC "-//W3C//DTD SVG 1.1//EN" "http://www.w3.org/Graphics/SVG/1.1/DTD/svg11.dtd">
<svg width="100%" height="100%" viewBox="0 0 91 82" version="1.1" xmlns="http://www.w3.org/2000/svg" xmlns:xlink="http://www.w3.org/1999/xlink" xml:space="preserve" xmlns:serif="http://www.serif.com/" style="fill-rule:evenodd;clip-rule:evenodd;stroke-linejoin:round;stroke-miterlimit:2;">
    <g transform="matrix(1,0,0,1,-4.948,-4.472)">
        <path d="M93.961,80.963L90.646,71.482L87.981,71.482L87.981,85.843L89.849,85.843L89.849,74.484L93.9,85.843L95.852,85.843L95.852,71.482L93.961,71.482L93.961,80.963Z" style="fill:rgb(63,72,71);fill-rule:nonzero;"/>
    </g>
    <g transform="matrix(1,0,0,1,-4.948,-4.472)">
        <rect x="4.948" y="4.472" width="5.838" height="40.868" style="fill:rgb(229,20,51);fill-rule:nonzero;"/>
        <rect x="18.292" y="19.485" width="5.838" height="25.855" style="fill:rgb(229,20,51);fill-rule:nonzero;"/>
        <rect x="34.139" y="19.485" width="5.839" height="25.855" style="fill:rgb(229,20,51);fill-rule:nonzero;"/>
        <rect x="47.483" y="4.472" width="5.839" height="40.868" style="fill:rgb(229,20,51);fill-rule:nonzero;"/>
        <rect x="63.33" y="19.485" width="5.838" height="25.855" style="fill:rgb(229,20,51);fill-rule:nonzero;"/>
        <rect x="76.674" y="19.485" width="5.838" height="25.855" style="fill:rgb(229,20,51);fill-rule:nonzero;"/>
        <rect x="90.019" y="19.485" width="5.838" height="25.855" style="fill:rgb(229,20,51);fill-rule:nonzero;"/>
    </g>
    <g transform="matrix(1,0,0,1,-4.948,-4.472)">
        <path d="M6.839,60.613L10.563,60.613L10.563,67.274L12.454,67.274L12.454,52.913L10.563,52.913L10.563,58.954L6.839,58.954L6.839,52.913L4.948,52.913L4.948,67.274L6.839,67.274L6.839,60.613Z" style="fill:rgb(63,72,71);fill-rule:nonzero;"/>
        <path d="M18.382,52.719C15.634,52.719 14.241,55.2 14.241,60.093C14.241,64.986 15.634,67.467 18.382,67.467C21.13,67.467 22.523,64.986 22.523,60.093C22.523,55.2 21.13,52.719 18.382,52.719ZM18.382,65.809C17.416,65.809 16.132,65.216 16.132,60.093C16.132,54.97 17.416,54.378 18.382,54.378C19.347,54.378 20.631,54.97 20.631,60.093C20.631,65.216 19.348,65.809 18.382,65.809Z" style="fill:rgb(63,72,71);fill-rule:nonzero;"/>
        <path d="M28.16,67.467C30.641,67.467 32.087,65.634 32.126,62.438L32.129,62.246L30.238,62.246L30.236,62.434C30.201,64.768 29.561,65.809 28.161,65.809C26.473,65.809 25.814,64.206 25.814,60.093C25.814,55.98 26.472,54.378 28.161,54.378C29.267,54.378 29.866,55.319 30.043,57.341L30.059,57.514L31.949,57.514L31.932,57.309C31.699,54.306 30.394,52.719 28.161,52.719C25.309,52.719 23.924,55.131 23.924,60.093C23.923,65.056 25.309,67.467 28.16,67.467Z" style="fill:rgb(63,72,71);fill-rule:nonzero;"/>
        <path d="M41.498,67.274L41.498,52.913L39.606,52.913L39.606,58.954L35.882,58.954L35.882,52.913L33.991,52.913L33.991,67.274L35.882,67.274L35.882,60.613L39.606,60.613L39.606,67.274L41.498,67.274Z" style="fill:rgb(63,72,71);fill-rule:nonzero;"/>
        <path d="M47.336,58.96C46.073,58.105 44.982,57.365 44.982,56.027C44.982,55.041 45.676,54.378 46.709,54.378C47.883,54.378 48.543,55.166 48.669,56.72L48.683,56.895L50.453,56.895L50.444,56.696C50.325,54.206 48.965,52.719 46.807,52.719C44.678,52.719 43.247,54.103 43.247,56.162C43.247,58.37 44.838,59.481 46.376,60.557C47.655,61.452 48.862,62.296 48.862,63.694C48.862,65.018 48.158,65.808 46.981,65.808C45.655,65.808 44.905,64.925 44.867,63.321L44.863,63.135L43.089,63.135L43.092,63.328C43.134,65.841 44.599,67.465 46.826,67.465C49.223,67.465 50.598,66.097 50.598,63.712C50.598,61.169 48.865,59.996 47.336,58.96Z" style="fill:rgb(63,72,71);fill-rule:nonzero;"/>
        <path d="M58.193,62.434C58.158,64.768 57.518,65.809 56.118,65.809C54.43,65.809 53.772,64.206 53.772,60.093C53.772,55.98 54.43,54.378 56.118,54.378C57.224,54.378 57.823,55.319 58,57.341L58.015,57.514L59.905,57.514L59.889,57.309C59.655,54.306 58.35,52.719 56.117,52.719C53.265,52.719 51.88,55.131 51.88,60.093C51.88,65.055 53.266,67.467 56.117,67.467C58.597,67.467 60.043,65.634 60.083,62.438L60.085,62.246L58.194,62.246L58.193,62.434Z" style="fill:rgb(63,72,71);fill-rule:nonzero;"/>
        <path d="M63.841,60.613L67.565,60.613L67.565,67.274L69.456,67.274L69.456,52.913L67.565,52.913L67.565,58.954L63.841,58.954L63.841,52.913L61.95,52.913L61.95,67.274L63.841,67.274L63.841,60.613Z" style="fill:rgb(63,72,71);fill-rule:nonzero;"/>
        <path d="M79.104,63.405L79.104,52.913L77.212,52.913L77.212,63.366C77.212,65.056 76.638,65.81 75.35,65.81C74.063,65.81 73.488,65.057 73.488,63.366L73.488,52.913L71.597,52.913L71.597,63.405C71.597,66.025 72.93,67.467 75.35,67.467C77.771,67.467 79.104,66.024 79.104,63.405Z" style="fill:rgb(63,72,71);fill-rule:nonzero;"/>
        <path d="M87.745,65.615L83.214,65.615L83.214,52.913L81.323,52.913L81.323,67.274L87.745,67.274L87.745,65.615Z" style="fill:rgb(63,72,71);fill-rule:nonzero;"/>
        <path d="M90.746,65.615L90.746,60.613L94.348,60.613L94.348,58.954L90.746,58.954L90.746,54.571L95.625,54.571L95.625,52.913L88.855,52.913L88.855,67.274L95.858,67.274L95.858,65.615L90.746,65.615Z" style="fill:rgb(63,72,71);fill-rule:nonzero;"/>
        <path d="M7.733,71.482L4.948,71.482L4.948,85.843L7.733,85.843C11.132,85.843 12.648,83.628 12.648,78.662C12.648,73.696 11.132,71.482 7.733,71.482ZM6.839,73.141L7.462,73.141C9.549,73.141 10.757,74.044 10.757,78.662C10.757,83.281 9.549,84.184 7.462,84.184L6.839,84.184L6.839,73.141Z" style="fill:rgb(63,72,71);fill-rule:nonzero;"/>
        <path d="M17.386,79.182L20.987,79.182L20.987,77.523L17.386,77.523L17.386,73.141L22.265,73.141L22.265,71.482L15.495,71.482L15.495,85.843L22.498,85.843L22.498,84.184L17.386,84.184L17.386,79.182Z" style="fill:rgb(63,72,71);fill-rule:nonzero;"/>
        <path d="M32.996,75.293C32.996,72.978 31.416,71.481 28.972,71.481L25.412,71.481L25.412,85.842L27.303,85.842L27.303,79.289L28.953,79.224L31.154,85.712L31.197,85.841L33.187,85.841L30.799,78.831C32.217,78.263 32.996,77.01 32.996,75.293ZM27.303,73.141L28.429,73.141C30.355,73.141 31.105,73.766 31.105,75.371C31.105,76.975 30.355,77.6 28.429,77.6L27.303,77.6L27.303,73.141Z" style="fill:rgb(63,72,71);fill-rule:nonzero;"/>
        <path d="M44.475,79.547L42.164,71.482L39.431,71.482L39.431,85.843L41.201,85.843L41.201,74.365L43.802,82.954L45.093,82.954L47.694,74.365L47.694,85.843L49.464,85.843L49.464,71.482L46.73,71.482L44.475,79.547Z" style="fill:rgb(63,72,71);fill-rule:nonzero;"/>
        <path d="M54.474,79.182L58.074,79.182L58.074,77.523L54.474,77.523L54.474,73.141L59.352,73.141L59.352,71.482L52.583,71.482L52.583,85.843L59.584,85.843L59.584,84.184L54.474,84.184L54.474,79.182Z" style="fill:rgb(63,72,71);fill-rule:nonzero;"/>
        <path d="M65.234,71.482L62.448,71.482L62.448,85.843L65.234,85.843C68.633,85.843 70.148,83.628 70.148,78.662C70.148,73.696 68.633,71.482 65.234,71.482ZM64.339,73.141L64.963,73.141C67.05,73.141 68.258,74.044 68.258,78.662C68.258,83.281 67.05,84.184 64.963,84.184L64.339,84.184L64.339,73.141Z" style="fill:rgb(63,72,71);fill-rule:nonzero;"/>
        <rect x="73.001" y="71.482" width="1.891" height="14.361" style="fill:rgb(63,72,71);"/>
        <path d="M79.989,79.182L83.59,79.182L83.59,77.523L79.989,77.523L79.989,73.141L84.869,73.141L84.869,71.482L78.098,71.482L78.098,85.843L85.101,85.843L85.101,84.184L79.989,84.184L79.989,79.182Z" style="fill:rgb(63,72,71);fill-rule:nonzero;"/>
    </g>
</svg>
