<?xml version="1.0" encoding="UTF-8" standalone="no"?>
<!DOCTYPE svg PUBLIC "-//W3C//DTD SVG 1.1//EN" "http://www.w3.org/Graphics/SVG/1.1/DTD/svg11.dtd">
<svg width="100%" height="100%" viewBox="0 0 3509 717" version="1.1" xmlns="http://www.w3.org/2000/svg" xmlns:xlink="http://www.w3.org/1999/xlink" xml:space="preserve" xmlns:serif="http://www.serif.com/" style="fill-rule:evenodd;clip-rule:evenodd;stroke-linejoin:round;stroke-miterlimit:2;">
    <g transform="matrix(4.16667,0,0,4.16667,0,0)">
        <path d="M82.923,129.601C93.464,129.601 100.727,123.276 100.727,113.203C100.727,102.427 92.762,97.041 82.689,97.041L48.02,97.041L48.02,129.601L82.923,129.601ZM78.473,65.651C87.843,65.651 94.168,61.201 94.168,52.299C94.168,43.632 87.608,38.479 78.239,38.479L48.02,38.479L48.02,65.651L78.473,65.651ZM0,0.53L86.671,0.53C103.069,0.53 115.25,4.512 124.152,11.306C134.225,19.036 140.081,30.514 140.081,44.335C140.081,60.264 133.288,70.336 119.233,76.426L119.233,77.13C137.504,82.986 148.045,98.446 148.045,117.42C148.045,135.457 140.783,149.044 128.836,157.476C118.764,164.504 105.646,168.017 88.312,168.017L0,168.017L0,0.53Z" style="fill:rgb(35,31,32);fill-rule:nonzero;"/>
        <path d="M237.999,168.017L237.999,152.557L237.295,152.557C228.16,164.972 216.447,171.765 200.05,171.765C171.472,171.765 157.417,153.025 157.417,125.618L157.417,48.551L201.69,48.551L201.69,115.078C201.69,127.492 207.078,134.051 217.619,134.051C229.097,134.051 235.89,125.853 235.89,112.968L235.89,48.551L280.163,48.551L280.163,168.017L237.999,168.017Z" style="fill:rgb(35,31,32);fill-rule:nonzero;"/>
        <path d="M338.258,66.589L338.96,66.589C348.565,51.596 360.043,45.975 375.269,45.975C378.783,45.975 381.125,46.443 382.531,47.146L382.531,84.86L381.594,84.86C355.593,80.409 340.366,92.121 340.366,119.06L340.366,168.017L296.093,168.017L296.093,48.551L338.258,48.551L338.258,66.589Z" style="fill:rgb(35,31,32);fill-rule:nonzero;"/>
        <path d="M475.528,107.347C475.528,90.247 466.625,76.66 453.508,76.66C440.624,76.66 431.958,89.076 431.958,107.347C431.958,125.618 440.391,138.503 453.508,138.503C466.625,138.503 475.528,124.681 475.528,107.347ZM386.982,108.05C386.982,70.57 408.532,44.803 440.391,44.803C457.491,44.803 465.924,51.128 473.653,61.201L474.356,61.201L474.356,0.53L518.629,0.53L518.629,168.017L476.465,168.017L476.465,151.385L475.997,151.385C468.266,164.738 455.616,172 440.86,172C409.938,172 386.982,149.277 386.982,108.05Z" style="fill:rgb(35,31,32);fill-rule:nonzero;"/>
        <path d="M605.77,124.681L605.77,114.14C601.553,116.249 596.167,118.123 588.67,119.762C575.786,122.574 571.803,126.321 571.803,133.348C571.803,141.312 578.362,144.827 585.624,144.827C595.932,144.827 605.77,138.97 605.77,124.681ZM607.645,154.197L607.176,154.197C599.446,164.738 587.264,171.062 568.995,171.062C546.038,171.062 529.17,158.648 529.17,135.222C529.17,108.753 549.551,101.023 572.506,98.446C597.805,95.635 604.6,92.59 604.6,85.094C604.6,78.535 601.553,73.616 591.95,73.616C582.346,73.616 577.426,79.237 576.254,87.904L534.325,87.904C535.26,64.246 553.532,44.803 591.012,44.803C609.284,44.803 624.51,48.551 634.35,55.813C644.186,63.543 648.637,72.679 648.637,88.608L648.637,133.817C648.637,141.547 651.682,142.25 656.133,141.547L656.836,141.547L656.836,166.612C653.557,168.017 645.592,170.126 637.393,170.126C619.59,170.126 610.456,165.207 607.645,154.197Z" style="fill:rgb(35,31,32);fill-rule:nonzero;"/>
        <path d="M796.213,123.276L841.891,123.276L841.891,168.017L796.213,168.017L796.213,123.276ZM733.2,123.276L778.877,123.276L778.877,168.017L733.2,168.017L733.2,123.276ZM669.952,123.276L715.631,123.276L715.631,168.017L669.952,168.017L669.952,123.276Z" style="fill:rgb(35,31,32);fill-rule:nonzero;"/>
    </g>
</svg>
