<svg viewBox="0 0 7592 6816" version="1.1" xmlns="http://www.w3.org/2000/svg" xmlns:xlink="http://www.w3.org/1999/xlink" xml:space="preserve" xmlns:serif="http://www.serif.com/" style="fill-rule:evenodd;clip-rule:evenodd;stroke-linejoin:round;stroke-miterlimit:2;">
    <g transform="matrix(4.16667,0,0,4.16667,-370.721,-758.829)">
        <path d="M1882.29,187.342L1861.69,187.342C1858.04,186.982 1854.04,186.788 1849.62,186.788L1186.96,186.788C1172.78,186.788 1157.89,191.755 1142.3,201.674C1126.7,211.61 1115,223.657 1107.21,237.828L986.135,447.358L898.032,447.358L924.917,398.763C925.972,396.937 926.901,395.091 927.852,393.248L1020.28,233.165C1025.95,223.959 1028.79,215.454 1028.79,207.646C1028.79,190.63 1018.85,182.12 999.007,182.12C999.007,182.119 869.052,182.119 869.052,182.119L332.383,182.119C331.828,182.119 331.266,182.176 330.71,182.191C330.154,182.174 329.593,182.119 329.038,182.119L114.054,182.119C97.345,182.119 88.973,189.285 88.973,203.617C88.973,210.196 91.366,217.361 96.14,225.116C96.14,225.115 166.751,348.647 166.751,348.647C173.333,360.598 183.326,370.746 196.761,379.101C210.195,387.472 222.596,391.643 233.933,391.643L418.709,391.643C420.131,391.643 421.634,391.497 423.165,391.229C435.343,389.913 448.148,385.125 461.584,376.757C477.536,366.834 489.401,354.788 497.209,340.604C497.209,340.604 522.003,296.062 530.419,283.891C537.782,273.242 551.812,257.956 567.776,248.033C583.728,238.133 598.449,233.163 611.938,233.163C631.778,233.163 641.716,241.673 641.716,258.683C641.716,265.926 639.476,273.795 635.21,282.246L616.274,315.055L604.497,335.248C604.265,335.682 604.078,336.103 603.885,336.526L412.405,692.163C401.771,709.873 396.453,729.017 396.453,749.584C396.453,760.218 398.583,769.071 402.836,776.169L543.199,1015.43C547.455,1022.51 552.772,1026.06 559.149,1026.06C571.194,1026.06 582.546,1016.84 593.179,998.407L858,519.72C858.147,519.721 858.289,519.742 858.435,519.742L944.309,519.742L613.804,1091.72C603.171,1110.15 597.85,1129.29 597.85,1149.14C597.85,1160.48 599.978,1169.35 604.23,1175.73L744.6,1416.05C748.852,1422.43 754.169,1425.62 760.55,1425.62C772.593,1425.62 783.944,1416.4 794.578,1397.97L1101.06,866.784L1184.02,866.784L826.928,1483.98C816.295,1501.7 810.977,1520.84 810.977,1541.41C810.977,1552.04 813.106,1560.89 817.358,1567.99L957.724,1807.25C961.98,1814.33 967.297,1817.88 973.674,1817.88C985.722,1817.88 997.069,1808.66 1007.7,1790.24L1446.26,1031.36C1450.21,1024.77 1483.52,966.977 1518.52,906.127C1532.42,881.953 1558.19,867.044 1586.07,867.044L1633.44,867.044C1652.72,867.044 1669.55,852.499 1670.8,833.262C1672.16,812.183 1655.47,794.658 1634.68,794.658L1625.96,794.658C1606.85,794.658 1594.68,774.233 1603.77,757.424L1603.88,757.219L1678.54,629.609C1683.49,620.408 1685.98,611.904 1685.98,604.094C1685.98,587.074 1676.41,578.569 1657.27,578.569L1402.06,578.569C1387.87,578.569 1372.82,583.538 1356.87,593.46C1340.92,603.393 1329.03,615.44 1321.24,629.609C1321.24,629.608 1225.9,794.397 1225.9,794.397L1142.82,794.397L1281.27,554.437C1294.89,530.826 1320.08,516.279 1347.34,516.279L1582.14,516.279C1601.42,516.279 1618.25,501.733 1619.49,482.497C1620.86,461.416 1604.17,443.893 1583.38,443.893L1382.39,443.893C1363.65,443.893 1351.45,424.173 1359.82,407.399C1376.14,374.659 1391.3,344.206 1393.62,339.908C1393.62,339.908 1423.4,288.866 1423.4,288.866C1431.19,274.695 1443.07,262.648 1459.02,252.713C1474.09,243.341 1488.34,238.446 1501.84,237.927C1516.33,240.119 1523.69,249.156 1523.69,263.95C1523.69,271.764 1521.2,280.28 1516.24,289.487L1486.44,340.567C1481.48,349.796 1479,358.304 1479,366.103C1479,383.13 1488.92,391.64 1508.79,391.64L1764.18,391.64C1777.64,391.64 1792.37,386.689 1808.33,376.745C1824.3,366.821 1836.17,354.766 1843.99,340.566L1903.57,238.411C1908.53,229.198 1911.03,220.689 1911.03,212.873C1911.03,195.846 1901.44,187.337 1882.29,187.337L1882.29,187.342Z" style="fill-rule:nonzero;"/>
    </g>
</svg>
