<?xml version="1.0" encoding="utf-8"?>
<!-- Generator: Adobe Illustrator 19.1.0, SVG Export Plug-In . SVG Version: 6.00 Build 0)  -->
<svg version="1.1" id="Ebene_1" xmlns="http://www.w3.org/2000/svg" xmlns:xlink="http://www.w3.org/1999/xlink" x="0px" y="0px"
	 viewBox="0 0 87 19.9" enable-background="new 0 0 87 19.9" xml:space="preserve" fill="#000000">
<g>
	<path d="M0.1,14.7c1.5,0.7,3.7,1.6,5.7,1.6c1.4,0,2.1-0.6,2.1-1.5c0-0.9-0.9-1.3-1.8-1.5l-0.9-0.3
		C2.5,12.2,0,11,0,7.4c0-3.4,2.6-5,6.7-5c1.7,0,3.5,0.3,5.1,0.9v3.8C10.1,6.4,8.5,6,6.6,6C5.5,6,4.9,6.4,4.9,7.2
		c0,0.9,1.2,1.3,2.2,1.6L8,9.1c2.7,0.8,4.8,2.1,4.8,5.4c0,3.9-3.3,5.3-7,5.3c-1.8,0-4.1-0.5-5.6-1.3V14.7z"/>
	<rect x="17.4" y="2.6" width="4.7" height="17"/>
	<path d="M27.6,2.8c1.5-0.1,4.4-0.2,5.8-0.2c4.9,0,7.5,1.5,7.5,5.7c0,2.4-1.3,3.8-3,4.6c1.5,1.7,3,4.4,4.1,6.8h-5.2
		c-0.8-1.9-2.3-4.4-3.1-5.6c0,0-0.4,0.1-0.5,0.1c-0.4,0.1-0.8,0.4-0.8,2.1v3.4h-4.7V2.8z M32.3,10.8c0.3-0.1,0.8-0.2,1.4-0.3
		c1.4-0.1,2.4-0.9,2.4-2.3c0-1.4-0.9-2.2-2.8-2.2c-0.4,0-0.6,0-1,0.1V10.8z"/>
	<path d="M50.5,13.2c0,1.9,0.7,3,2.1,3c1.4,0,2.1-1.1,2.1-3V2.6h4.7v10.7c0,4.4-2.6,6.6-6.8,6.6
		c-4.2,0-6.8-2.2-6.8-6.6V2.6h4.7V13.2z"/>
	<path d="M81.8,2.6c0-1.4,1.2-2.6,2.6-2.6C85.8,0,87,1.2,87,2.6c0,1.4-1.2,2.6-2.6,2.6C82.9,5.2,81.8,4.1,81.8,2.6"
		/>
	<path d="M70.6,2.5c-1.4,0-4.3,0.1-5.8,0.2v16.8h4.7v-3c0-1.9,0.3-2.1,1.7-2.3c4.2-0.5,6.9-2,6.9-6.1
		C78.1,4,75.4,2.5,70.6,2.5 M70.9,10.5c-0.6,0.1-1.1,0.1-1.4,0.3V6c0.3,0,0.5-0.1,1-0.1c1.9,0,2.8,0.9,2.8,2.2
		C73.3,9.6,72.3,10.4,70.9,10.5"/>
</g>
</svg>
