<svg version="1.1" id="Ebene_1" xmlns="http://www.w3.org/2000/svg" x="0" y="0" viewBox="0 0 575.76 441.21" style="enable-background:new 0 0 575.76 441.21" xml:space="preserve"><style>.st0{fill:#d8b268}</style><path class="st0" d="M546.17 29.58v285.44H29.57V29.58h516.6M575.76 0H0v344.6h575.76V0z"/><path class="st0" d="M173.17 59.13h39.31V283.9h-39.31zM87.7 284.42h49.48l29.79-225.29H126.1l-6.63 78.93-3.76 128.84-4.4-128.84-6.35-78.93H59.65zM264.73 59.13h-40.66V283.9h34.81l.14-56.04-8.11-108.28L263 202.22l19.93 81.68h40.26V59.13h-35.32l-.05 55.8 8.4 108.95-12.36-85.17zm247.04 6-3.99 36.66s-10.36-4.29-20.89-3.21c0 0-7.8.29-8.08 15.9v15.48s-.71 9.55 5.67 13.74l6.85 3.95s13.1 6.2 18.2 17.67c0 0 7.13 10.26 6.99 41.49 0 0 1.48 26.7-3.26 44.3 0 0-3.84 19.8-19.69 30.19 0 0-23.68 15.48-54.09-4.55l4.55-34.24s11.29 6.74 21.85 5.28c0 0 9.27-.37 10.2-9.11 0 0 2.19-13.84.73-28.41 0 0 .36-11.84-10.75-17.67 0 0-18.76-8.38-22.77-31.14 0 0-3.46-25.32-2.19-41.89 0 0 .9-30.2 7.65-42.07 0 0 5.1-12.75 17.48-18.21.01.02 22.92-9.34 45.54 5.84zm-80.08 52.16c-2.87-25.85-11.19-39.15-11.19-39.15-8.16-17.23-25.09-20.1-25.09-20.1-28.87-6.05-42.17 9.22-42.17 9.22-8.16 7.56-14.36 26-14.36 26-7.41 19.05-7.71 71.95-7.71 71.95-1.66 37.64 5.29 73.16 5.29 73.16 6.5 34.62 24.94 43.69 24.94 43.69 30.23 14.21 49.13-4.69 49.13-4.69 16.78-16.02 20.56-48.83 20.56-48.83 3.02-12.09 3.63-61.67 3.63-61.67.9-15.11-3.03-49.58-3.03-49.58zm-40.71 54.69v42.9l-.41 17.46s.41 17.87-7.45 17.24c0 0-7.81 1.94-7.86-18.31l-.36-21.03-.19-37.95.3-47.45.25-9.19s-.09-10.52 3.21-15.24c.93-1.33 2.44-2.09 4.06-2.15 2.27-.09 5.61.78 6.66 6.3 0 0 1.33 5.36 1.51 13.43l.3 29.94v24.05h-.02zM40.31 410.79c0 12.34-7.49 19.4-19.4 19.4H8.24v-38.57h12.67c11.9-.01 19.4 6.99 19.4 19.17zm-7.55-.22c0-7.44-4.63-11.96-11.79-11.96h-5.13v24.58h5.13c7.1 0 11.79-4.79 11.79-12.62zm36.86 13.78v5.84h-1.27c-2.65 0-5.07-.88-6.01-3.58-2.09 2.53-5.4 4.13-9.59 4.13-5.73 0-9.75-2.81-9.75-7.99 0-5.84 4.9-8.65 12.34-9.2l5.12-.39v-.55c0-3.2-1.76-5.12-4.57-5.12-3.31 0-4.63 2.53-4.85 4.41h-6.78c.44-5.62 4.68-9.81 11.57-9.81 6.5 0 11.52 3.75 11.52 11.35v8.49c.01 1.81.68 2.42 2.27 2.42zm-9.14-5.73v-.55l-3.47.28c-4.52.39-6.78 1.87-6.78 3.97 0 1.82 1.49 2.81 3.58 2.81 3.3-.01 6.67-2.38 6.67-6.51zm23.75 12.12c-7.11 0-11.63-3.8-11.96-9.86h6.94c.17 3.14 2.76 4.35 5.12 4.35 1.98 0 3.75-.83 3.75-2.65 0-2.04-2.09-2.98-5.46-3.86-4.02-1.1-9.48-2.87-9.48-8.32 0-5.01 4.52-8.32 10.64-8.32 6.45 0 10.36 3.8 10.75 8.71h-6.67c-.22-1.93-1.93-3.25-4.41-3.25-1.76 0-3.2.88-3.2 2.48 0 1.71 1.65 2.53 5.46 3.64 5.4 1.54 9.42 3.8 9.42 8.93.01 5.34-4.68 8.15-10.9 8.15zm58.68-11.24c0 7.66-6.28 10.69-12.78 10.69h-15.04v-38.57h13.78c6.72 0 12.12 3.25 12.12 9.75 0 4.46-2.48 6.83-5.57 7.99v.5c3.8 1.1 7.49 3.8 7.49 9.64zm-20.66-12.4h6.17c3.42 0 5.29-1.82 5.29-4.68 0-2.76-2.15-4.46-5.12-4.46h-6.34v9.14zm13.17 11.57c0-3.14-2.31-5.51-6.5-5.51h-6.67v10.69h6.45c4.35 0 6.72-2.04 6.72-5.18zm38.46 2.81c-1.32 6.01-6.72 9.26-12.95 9.26-8.6 0-14.11-5.84-14.11-14.38 0-8.49 6.06-14.27 13.61-14.27 7.33 0 14.22 4.52 13.28 16.26h-20c.55 3.97 2.81 6.56 7.33 6.56 2.7 0 5.07-1.21 6.06-3.42h6.78v-.01zm-19.89-8.32h13.12c-.11-2.76-2.53-5.46-6.34-5.46-3.42.01-5.9 1.99-6.78 5.46zm35.32 17.58c-7.11 0-11.63-3.8-11.96-9.86h6.94c.17 3.14 2.76 4.35 5.12 4.35 1.98 0 3.75-.83 3.75-2.65 0-2.04-2.09-2.98-5.46-3.86-4.02-1.1-9.48-2.87-9.48-8.32 0-5.01 4.52-8.32 10.64-8.32 6.45 0 10.36 3.8 10.75 8.71h-6.67c-.22-1.93-1.93-3.25-4.41-3.25-1.76 0-3.2.88-3.2 2.48 0 1.71 1.65 2.53 5.46 3.64 5.4 1.54 9.42 3.8 9.42 8.93.01 5.34-4.67 8.15-10.9 8.15zm26.12 0c-4.79 0-8.38-2.04-8.38-8.82v-13.56h-5.4v-5.24h1.71c2.87 0 4.35-1.49 4.35-3.86v-3.58h6.5v6.94h6.83v5.73h-6.83v12.89c0 2.2.99 3.2 2.53 3.2 1.1 0 2.09-.5 2.59-.77l1.49 5.57c-1.15.73-2.96 1.5-5.39 1.5zm34.61-9.26c-1.32 6.01-6.72 9.26-12.95 9.26-8.6 0-14.11-5.84-14.11-14.38 0-8.49 6.06-14.27 13.61-14.27 7.33 0 14.22 4.52 13.28 16.26h-20c.55 3.97 2.81 6.56 7.33 6.56 2.7 0 5.07-1.21 6.06-3.42h6.78v-.01zm-19.9-8.32h13.12c-.11-2.76-2.53-5.46-6.34-5.46-3.41.01-5.89 1.99-6.78 5.46zm65.03 11.19v5.84h-1.27c-2.65 0-5.07-.88-6.01-3.58-2.09 2.53-5.4 4.13-9.59 4.13-5.73 0-9.75-2.81-9.75-7.99 0-5.84 4.9-8.65 12.34-9.2l5.12-.39v-.55c0-3.2-1.76-5.12-4.57-5.12-3.31 0-4.63 2.53-4.85 4.41h-6.78c.44-5.62 4.68-9.81 11.57-9.81 6.5 0 11.52 3.75 11.52 11.35v8.49c.01 1.81.67 2.42 2.27 2.42zm-9.15-5.73v-.55l-3.47.28c-4.52.39-6.78 1.87-6.78 3.97 0 1.82 1.49 2.81 3.58 2.81 3.31-.01 6.67-2.38 6.67-6.51zm12.4-.39v-15.6h7.44v14.38c0 4.85 2.42 7.16 5.84 7.16 2.98 0 5.68-2.04 5.68-7v-14.55h7.44v27.55h-5.79l-.94-3.36h-.61c-1.27 1.6-3.25 3.91-8.38 3.91-6.16.02-10.68-4.28-10.68-12.49zm42.71 12.51c-7.11 0-11.63-3.8-11.96-9.86h6.94c.17 3.14 2.76 4.35 5.12 4.35 1.98 0 3.75-.83 3.75-2.65 0-2.04-2.09-2.98-5.46-3.86-4.02-1.1-9.48-2.87-9.48-8.32 0-5.01 4.52-8.32 10.64-8.32 6.45 0 10.36 3.8 10.75 8.71h-6.67c-.22-1.93-1.93-3.25-4.41-3.25-1.76 0-3.2.88-3.2 2.48 0 1.71 1.65 2.53 5.46 3.64 5.4 1.54 9.42 3.8 9.42 8.93.01 5.34-4.68 8.15-10.9 8.15zm44.14 0c-9.2 0-14.27-5.57-14.33-13.12h7.38c.06 3.91 2.2 6.72 7.11 6.72 3.09 0 5.68-1.38 5.68-4.41 0-2.92-2.15-4.46-7.77-6.39-6.06-2.15-11.24-5.07-11.24-11.41 0-7 5.46-11.08 12.56-11.08 8.38 0 13.06 5.46 13.12 11.74h-6.83c-.28-2.81-2.15-5.35-6.28-5.35-3.03 0-5.07 1.65-5.07 4.13 0 2.59 2.15 4.02 7.11 5.9 7.27 2.76 12.01 5.84 12.01 12.51-.01 7.23-5.74 10.76-13.45 10.76zm45.46-14.38c0 8.87-5.9 14.44-12.95 14.44-3.53 0-6.12-1.38-7.49-3.42v13.83h-7v-38.57h5.46l.83 3.2h.72c1.49-1.93 3.8-3.69 7.83-3.69 6.87-.01 12.6 5.5 12.6 14.21zm-7.05.11c0-4.68-2.81-7.94-6.78-7.94s-6.61 3.31-6.61 7.94 2.65 7.88 6.61 7.88c3.97 0 6.78-3.25 6.78-7.88zm36.64 7.88v5.84h-1.27c-2.65 0-5.07-.88-6.01-3.58-2.09 2.53-5.4 4.13-9.59 4.13-5.73 0-9.75-2.81-9.75-7.99 0-5.84 4.9-8.65 12.34-9.2l5.12-.39v-.55c0-3.2-1.76-5.12-4.57-5.12-3.31 0-4.63 2.53-4.85 4.41h-6.78c.44-5.62 4.68-9.81 11.57-9.81 6.5 0 11.52 3.75 11.52 11.35v8.49c.01 1.81.67 2.42 2.27 2.42zm-9.15-5.73v-.55l-3.47.28c-4.52.39-6.78 1.87-6.78 3.97 0 1.82 1.49 2.81 3.58 2.81 3.31-.01 6.67-2.38 6.67-6.51zm40.06-4.03v15.6h-7.44v-14.38c0-4.85-2.53-7.16-5.9-7.16-2.98 0-5.79 2.04-5.79 7v14.55h-7.49v-27.55h5.84l.94 3.36h.61c1.27-1.6 3.31-3.91 8.49-3.91 6.12-.02 10.74 4.28 10.74 12.49zm5.13-19.72c0-2.59 2.09-4.52 4.57-4.52s4.46 1.93 4.46 4.52c0 2.37-1.98 4.46-4.46 4.46s-4.57-2.09-4.57-4.46zm8.1 35.32h-7.16v-27.55h7.16v27.55zm32.07-8.71c-1.32 6.01-6.72 9.26-12.95 9.26-8.6 0-14.11-5.84-14.11-14.38 0-8.49 6.06-14.27 13.61-14.27 7.33 0 14.22 4.52 13.28 16.26h-20c.55 3.97 2.81 6.56 7.33 6.56 2.7 0 5.07-1.21 6.06-3.42h6.78v-.01zm-19.89-8.32h13.12c-.11-2.76-2.53-5.46-6.34-5.46-3.42.01-5.9 1.99-6.78 5.46zm51.03 1.43v15.6h-7.44v-14.38c0-4.85-2.53-7.16-5.9-7.16-2.98 0-5.79 2.04-5.79 7v14.55h-7.49v-27.55h5.84l.94 3.36h.61c1.27-1.6 3.31-3.91 8.49-3.91 6.11-.02 10.74 4.28 10.74 12.49z"/></svg>