<svg fill="currentColor" xmlns="http://www.w3.org/2000/svg"  viewBox="0 0 60 60"><path d="M 4 0 A 4 4 0 0 0 0 4 L 0 56 A 4 4 0 0 0 4 60 L 56 60 A 4 4 0 0 0 60 56 L 60 4 A 4 4 0 0 0 56 0 L 4 0 z M 4 2 L 56 2 A 2 2 0 0 1 58 4 L 58 8 L 2 8 L 2 4 A 2 2 0 0 1 4 2 z M 5 4 A 1 1 0 0 0 5 6 L 6 6 A 1 1 0 0 0 6 4 L 5 4 z M 10 4 A 1 1 0 0 0 10 6 L 11 6 A 1 1 0 0 0 11 4 L 10 4 z M 15 4 A 1 1 0 0 0 15 6 L 16 6 A 1 1 0 0 0 16 4 L 15 4 z M 49 4 A 1 1 0 0 0 49 6 L 55 6 A 1 1 0 0 0 55 4 L 49 4 z M 2 10 L 58 10 L 58 56 A 2 2 0 0 1 56 58 L 4 58 A 2 2 0 0 1 2 56 L 2 10 z M 12 18 A 4 4 0 0 0 8 22 L 8 31 A 2 2 0 0 1 6 33 A 1 1 0 0 0 6 35 A 2 2 0 0 1 8 37 L 8 46 A 4 4 0 0 0 12 50 A 1 1 0 0 0 12 48 A 2 2 0 0 1 10 46 L 10 37 A 3.99 3.99 0 0 0 8.6425781 34 A 3.99 3.99 0 0 0 10 31 L 10 22 A 2 2 0 0 1 12 20 A 1 1 0 0 0 12 18 z M 48 18 A 1 1 0 0 0 48 20 A 2 2 0 0 1 50 22 L 50 31 A 3.99 3.99 0 0 0 51.357422 34 A 3.99 3.99 0 0 0 50 37 L 50 46 A 2 2 0 0 1 48 48 A 1 1 0 0 0 48 50 A 4 4 0 0 0 52 46 L 52 37 A 2 2 0 0 1 54 35 A 1 1 0 0 0 54 33 A 2 2 0 0 1 52 31 L 52 22 A 4 4 0 0 0 48 18 z M 18 25 A 5.006 5.006 0 0 0 13 30 L 13 38 A 5 5 0 0 0 23 38 L 23 30 A 5.006 5.006 0 0 0 18 25 z M 30 25 A 5.006 5.006 0 0 0 25 30 L 25 38 A 5 5 0 0 0 35 38 L 35 30 A 5.006 5.006 0 0 0 30 25 z M 38 25 A 1 1 0 0 0 37 26 L 37 42 A 1 1 0 0 0 39 42 L 39 36 L 42 36 A 5.006 5.006 0 0 0 47 31 L 47 30 A 5.006 5.006 0 0 0 42 25 L 38 25 z M 39 27 L 42 27 A 3 3 0 0 1 45 30 L 45 31 A 3 3 0 0 1 42 34 L 39 34 L 39 27 z M 18.087891 27.001953 A 3 3 0 0 1 21 30 L 21 38 A 3 3 0 0 1 15 38 L 15 30 A 3 3 0 0 1 18.087891 27.001953 z M 30.087891 27.001953 A 3 3 0 0 1 33 30 L 33 38 A 3 3 0 0 1 27 38 L 27 30 A 3 3 0 0 1 30.087891 27.001953 z"/></svg>