<svg fill="currentColor" xmlns="http://www.w3.org/2000/svg"  viewBox="0 0 50 50"><path d="M 19.878906 1 C 14.998373 1 11 4.9051084 11 9.7207031 C 11 12.923999 12.76902 15.721562 15.390625 17.236328 C 11.51798 20.158803 9 24.784006 9 30 C 9 32.636578 9.6469686 35.124839 10.779297 37.320312 L 6.5390625 36.097656 A 1.0001 1.0001 0 1 0 5.9863281 38.019531 L 12.722656 39.960938 A 1.0001 1.0001 0 0 0 13.960938 39.275391 L 15.960938 32.275391 A 1.0001 1.0001 0 0 0 14.966797 30.986328 A 1.0001 1.0001 0 0 0 14.039062 31.724609 L 12.652344 36.580078 C 11.603942 34.618225 11 32.384628 11 30 C 11 22.25648 17.25648 16 25 16 C 32.74352 16 39 22.25648 39 30 C 39 37.74352 32.74352 44 25 44 L 4 44 A 1.0001 1.0001 0 1 0 4 46 L 43.585938 46 L 41.292969 48.292969 A 1.0001 1.0001 0 1 0 42.707031 49.707031 L 46.707031 45.707031 A 1.0001 1.0001 0 0 0 46.707031 44.292969 L 42.707031 40.292969 A 1.0001 1.0001 0 0 0 41.990234 39.990234 A 1.0001 1.0001 0 0 0 41.292969 41.707031 L 43.585938 44 L 32.730469 44 C 37.656226 41.269852 41 36.021158 41 30 C 41 21.17552 33.82448 14 25 14 C 22.228602 14 19.620627 14.70884 17.345703 15.953125 C 14.799195 14.964817 13 12.558679 13 9.7207031 C 13 6.0082979 16.05744 3 19.878906 3 C 22.522434 3 24.788079 4.4567296 25.941406 6.5683594 L 23.195312 6.0195312 A 1.0001 1.0001 0 1 0 22.804688 7.9804688 L 27.804688 8.9804688 A 1.0001 1.0001 0 0 0 28.980469 8.1953125 L 29.980469 3.1953125 A 1.0001 1.0001 0 0 0 28.984375 1.9863281 A 1.0001 1.0001 0 0 0 28.019531 2.8046875 L 27.517578 5.3085938 C 25.969375 2.7299369 23.128406 1 19.878906 1 z"/></svg>