<svg fill="currentColor" xmlns="http://www.w3.org/2000/svg" viewBox="0 0 24 24"><path d="M2.42 7.939c-.165 0-.318-.081-.412-.216-.094-.136-.114-.31-.055-.464.003-.007.034-.088.037-.095C3.901 2.833 8.18.021 12.891 0c.017 0 .035 0 .052 0 3.958 0 7.66 1.973 9.915 5.285.133.195.111.457-.053.627-1.186 1.236-2.835 1.949-4.524 1.957L2.422 7.939C2.422 7.939 2.421 7.939 2.42 7.939zM12.943 1c-.016 0-.031 0-.047 0C8.812 1.018 5.083 3.326 3.209 6.936l15.067-.067c1.285-.006 2.543-.499 3.512-1.364C19.704 2.674 16.43 1 12.943 1zM12.941 24c-2.368 0-4.613-.676-6.526-1.957-1.949-1.273-3.461-3.06-4.412-5.189-.069-.154-.055-.333.037-.475.091-.142.249-.228.417-.229l15.858-.08c1.728 0 3.34.685 4.543 1.928.164.169.187.429.057.625-2.231 3.35-5.939 5.359-9.918 5.376C12.979 24 12.96 24 12.941 24zM3.259 17.146c.874 1.646 2.129 3.031 3.666 4.036C8.72 22.382 10.774 23 12.914 23c.017 0 .033 0 .049 0 3.538-.016 6.818-1.723 8.883-4.589-.975-.867-2.212-1.34-3.526-1.341L3.259 17.146zM17.89 15.28H1.83c-.229 0-.429-.155-.485-.377C1.127 14.04 1.011 13.096 1 12.095c-.01-1.069.106-2.061.346-2.999C1.402 8.875 1.602 8.72 1.83 8.72h16.06c1.542 0 2.896 1.096 3.219 2.605.023.104.036.2.048.308L21.17 12c0 .125-.01.251-.022.376-.094.753-.425 1.428-.935 1.937C19.604 14.936 18.777 15.28 17.89 15.28zM2.228 14.28H17.89c.616 0 1.189-.238 1.613-.67.357-.357.587-.826.651-1.323.007-.098.016-.192.016-.287l-.01-.31c-.005-.015-.012-.079-.028-.151-.227-1.056-1.169-1.819-2.242-1.819H2.227C2.068 10.462 1.992 11.239 2 12.035 2.008 12.841 2.087 13.599 2.228 14.28z"/></svg>