<svg fill="currentColor" xmlns="http://www.w3.org/2000/svg"  viewBox="0 0 24 24"><path d="M 6.8945312 1.5 C 6.2725312 1.5 5.6816562 1.8538281 5.3476562 2.4238281 L 0.2421875 11.164062 C 0.0831875 11.433063 0 11.7445 0 12.0625 C 0 12.3675 0.0775625 12.667641 0.2265625 12.931641 C 0.2315625 12.940641 0.2361875 12.949984 0.2421875 12.958984 L 5.3476562 21.650391 C 5.6596563 22.182391 6.2375312 22.5 6.8945312 22.5 L 17.105469 22.5 C 17.762469 22.5 18.340344 22.18525 18.652344 21.65625 L 23.751953 12.960938 C 23.913953 12.693937 24 12.383406 24 12.066406 C 24 11.754406 23.914812 11.4475 23.757812 11.1875 L 18.652344 2.4238281 C 18.320344 1.8548281 17.727469 1.5 17.105469 1.5 L 6.8945312 1.5 z M 6.8945312 3 L 17.105469 3 C 17.189469 3 17.297422 3.0766875 17.357422 3.1796875 L 22.46875 11.953125 C 22.48975 11.988125 22.5 12.027359 22.5 12.068359 C 22.5 12.124359 22.481844 12.162406 22.464844 12.191406 L 17.359375 20.896484 C 17.304375 20.990484 17.165422 21 17.107422 21 L 6.8945312 21 C 6.8365313 21 6.6995781 20.989625 6.6425781 20.890625 L 1.5488281 12.222656 C 1.5448281 12.216656 1.5411094 12.209125 1.5371094 12.203125 C 1.5121094 12.160125 1.5 12.1135 1.5 12.0625 C 1.5 11.9965 1.5201563 11.948828 1.5351562 11.923828 L 6.640625 3.1816406 C 6.701625 3.0786406 6.8105313 3 6.8945312 3 z M 11.996094 4.25 C 11.809969 4.24975 11.625937 4.296125 11.460938 4.390625 L 5.5585938 7.7265625 C 5.2145938 7.9195625 5 8.2771094 5 8.6621094 L 5 15.337891 L 5 15.359375 C 5.011 15.739375 5.2276406 16.091437 5.5566406 16.273438 L 11.464844 19.609375 C 11.627844 19.701375 11.813953 19.75 12.001953 19.75 C 12.192953 19.75 12.380109 19.699422 12.537109 19.607422 L 18.441406 16.273438 C 18.775406 16.088437 18.990953 15.738891 19.001953 15.337891 L 18.998047 8.6367188 C 18.985047 8.2547187 18.776406 7.9135625 18.441406 7.7265625 L 12.535156 4.3925781 C 12.368656 4.2970781 12.182219 4.25025 11.996094 4.25 z M 11.996094 5.8105469 L 17.498047 8.9179688 L 17.5 15.082031 L 12.001953 18.189453 L 6.5 15.082031 L 6.5 8.9179688 L 11.996094 5.8105469 z"/></svg>