<svg fill="currentColor" xmlns="http://www.w3.org/2000/svg"  viewBox="0 0 48 48"><path d="M 5.5195312 4 A 1.50015 1.50015 0 0 0 4.8945312 4.1269531 C 3.2816224 4.4352112 2.0195313 5.8045907 2.0195312 7.5 L 2.0195312 15.5 C 2.0195312 17.416237 3.6032947 19 5.5195312 19 L 13.019531 19 L 14.216797 19.855469 C 14.080912 21.19481 14 22.576485 14 24 C 14 25.768573 14.255306 27.367409 14.460938 29 L 7.7636719 29 C 7.3796724 27.749111 7.1187783 26.444047 7.0332031 25.087891 A 1.50015 1.50015 0 0 0 5.5683594 23.660156 A 1.50015 1.50015 0 0 0 4.0390625 25.277344 C 4.6980536 35.720732 13.400876 44 24 44 A 1.50015 1.50015 0 1 0 24 41 C 23.267648 41 22.523617 40.695115 21.707031 39.943359 C 20.890446 39.191604 20.06222 37.997516 19.353516 36.455078 C 18.783487 35.214457 18.36313 33.623734 17.978516 32 L 21.681641 32 A 1.50015 1.50015 0 1 0 21.681641 29 L 17.466797 29 C 17.243761 27.38661 17 25.779318 17 24 C 17 23.283719 17.020982 22.578074 17.058594 21.884766 L 19.628906 23.720703 A 1.50015 1.50015 0 0 0 22 22.5 L 22 7.8183594 C 22.698385 7.2547915 23.357547 7 24 7 C 24.732352 7 25.476383 7.3048855 26.292969 8.0566406 C 27.109554 8.8083958 27.93778 10.002484 28.646484 11.544922 C 29.216513 12.785543 29.63687 14.376266 30.021484 16 L 25 16 A 1.50015 1.50015 0 1 0 25 19 L 30.533203 19 C 30.756239 20.61339 31 22.220682 31 24 C 31 24.682235 30.956055 25.338305 30.921875 26 L 29.5 26 C 27.583763 26 26 27.583763 26 29.5 L 26 44.5 A 1.50015 1.50015 0 0 0 28.371094 45.720703 L 35.371094 40.720703 A 1.50015 1.50015 0 1 0 33.628906 38.279297 L 29 41.585938 L 29 29.5 C 29 29.210237 29.210237 29 29.5 29 L 42.5 29 C 42.789763 29 43 29.210237 43 29.5 L 43 37.5 C 43 37.789763 42.789763 38 42.5 38 L 40.830078 38 A 1.50015 1.50015 0 1 0 40.830078 41 L 42.5 41 C 44.416237 41 46 39.416237 46 37.5 L 46 29.5 C 46 27.803928 44.736878 26.43445 43.123047 26.126953 A 1.50015 1.50015 0 0 0 42.5 26 L 33.923828 26 C 33.955648 25.336743 34 24.681831 34 24 C 34 22.231427 33.744693 20.632591 33.539062 19 L 40.240234 19 C 40.596281 20.160187 40.844946 21.367392 40.945312 22.619141 A 1.50015 1.50015 0 1 0 43.935547 22.380859 C 43.111084 12.098311 34.482593 4 24 4 A 1.50015 1.50015 0 0 0 23.810547 4.0117188 C 22.758936 4.0490284 21.766293 4.389624 20.867188 4.9472656 C 20.24086 4.365472 19.411296 4 18.5 4 L 12.744141 4 A 1.50015 1.50015 0 1 0 12.744141 7 L 18.5 7 C 18.789763 7 19 7.2102366 19 7.5 L 19 19.585938 L 14.371094 16.279297 A 1.50015 1.50015 0 0 0 13.5 16 L 5.5195312 16 C 5.229768 16 5.0195313 15.789763 5.0195312 15.5 L 5.0195312 7.5 C 5.0195312 7.2102366 5.2297679 7 5.5195312 7 L 7.5 7 A 1.50015 1.50015 0 1 0 7.5 4 L 5.5195312 4 z M 30.214844 8.1738281 C 33.993182 9.6554789 37.09628 12.453731 38.990234 16 L 33.148438 16 C 32.705064 13.910528 32.133863 11.948822 31.373047 10.292969 C 31.021448 9.5277435 30.631671 8.8272687 30.214844 8.1738281 z M 9.0117188 32 L 14.851562 32 C 15.294937 34.089472 15.866137 36.051178 16.626953 37.707031 C 16.9779 38.470838 17.367275 39.169814 17.783203 39.822266 C 14.005762 38.340564 10.905389 35.545964 9.0117188 32 z"/></svg>