<svg viewBox="0 0 70 70" version="1.1" xmlns="http://www.w3.org/2000/svg" xmlns:xlink="http://www.w3.org/1999/xlink" xml:space="preserve" xmlns:serif="http://www.serif.com/" style="stroke:currentColor;fill-rule:evenodd;clip-rule:evenodd;stroke-linejoin:round;stroke-miterlimit:2;">
    <path d="M56,28.309L56,56L19.241,56L19.25,56.073L20.198,61.76L43.896,70L70,54.323L56,28.309Z" style="fill:none;fill-rule:nonzero;stroke-width:0.6px;"/>
    <path d="M32.083,14L34.052,12.25L43.239,4.156L60.885,7.437L70,30.041L56.875,43.093L56,42.691L56,14L32.083,14Z" style="fill:none;fill-rule:nonzero;stroke-width:0.6px;"/>
    <path d="M14,17.121L0,13.489L6.635,53.593L14,53.566L14,17.121Z" style="fill:none;fill-rule:nonzero;stroke-width:0.6px;"/>
    <path d="M14,20.593L14,14L38.294,14L38.646,12.323L36.312,5.25L11.959,0L0,13.49L13.125,20.198L14,20.593Z" style="fill:none;fill-rule:nonzero;stroke-width:0.6px;"/>
    <rect x="14" y="14" width="42" height="42" style="fill:none;fill-rule:nonzero;stroke-width:1px;"/>
    <path d="M34.417,48.65L18.667,48.65L18.667,51.333L34.417,51.333L34.417,48.65ZM32.97,32.76L35,30.31C36.4,31.5 37.94,32.2 39.69,32.2C41.09,32.2 42,31.64 42,30.73L42,30.66C42,29.75 41.44,29.33 38.85,28.63C35.63,27.86 33.6,26.95 33.6,23.8L33.6,23.73C33.6,20.86 35.91,18.97 39.13,18.97C41.44,18.97 43.4,19.67 45.01,21L43.19,23.59C41.79,22.61 40.39,22.05 39.06,22.05C37.73,22.05 37.03,22.68 37.03,23.45L37.03,23.52C37.03,24.57 37.73,24.92 40.46,25.62C43.68,26.46 45.5,27.58 45.5,30.38L45.5,30.45C45.5,33.6 43.12,35.35 39.69,35.35C37.31,35.28 34.86,34.44 32.97,32.76ZM19.25,19.25L25.69,19.25C29.47,19.25 31.71,21.49 31.71,24.71L31.71,24.78C31.71,28.42 28.91,30.31 25.34,30.31L22.68,30.31L22.68,35L19.25,35L19.25,19.25ZM25.48,27.16C27.23,27.16 28.21,26.11 28.21,24.78L28.21,24.71C28.21,23.17 27.16,22.33 25.41,22.33L22.75,22.33L22.75,27.16L25.48,27.16Z" style="fill:none;fill-rule:nonzero;stroke-width:0.55px;"/>
</svg>
