<svg fill="currentColor" xmlns="http://www.w3.org/2000/svg"  viewBox="0 0 24 24"><path d="M 12 0.0234375 C 11.723375 0.0234375 11.446969 0.14603125 11.292969 0.39453125 L 10.917969 1.0019531 L 10.429688 0.47851562 C 10.038688 0.059515625 9.2499688 0.21185937 9.0429688 0.75585938 L 8.7929688 1.4238281 L 8.2167969 1.0078125 C 7.7567969 0.6708125 7.00525 0.96582813 6.90625 1.5488281 L 6.7910156 2.2519531 L 6.1503906 1.9609375 C 5.6393906 1.7129375 4.9648438 2.1211875 4.9648438 2.7421875 L 4.9902344 3.4570312 L 4.2871094 3.2929688 C 4.2521094 3.2849688 4.1414687 3.2714844 4.1054688 3.2714844 C 3.6464687 3.2714844 3.2714844 3.6445156 3.2714844 4.1035156 C 3.2714844 4.1415156 3.2859219 4.2579219 3.2949219 4.2949219 L 3.4570312 4.9882812 L 2.7148438 4.9628906 C 2.2558438 4.9628906 1.8828125 5.3359219 1.8828125 5.7949219 C 1.8828125 5.9149219 1.9070312 6.034625 1.9570312 6.140625 L 2.2539062 6.7910156 L 1.5449219 6.90625 C 1.1459219 6.97725 0.85351562 7.3225625 0.85351562 7.7265625 C 0.85351563 7.8995625 0.90776563 8.0678906 1.0097656 8.2128906 L 1.4277344 8.7929688 L 0.75390625 9.0449219 C 0.43390625 9.1679219 0.21875 9.4802656 0.21875 9.8222656 C 0.21875 10.053266 0.31642187 10.274734 0.48242188 10.427734 L 1.0039062 10.914062 L 0.3984375 11.289062 C 0.1484375 11.441063 0 11.706047 0 11.998047 C 0 12.285047 0.15153125 12.556078 0.39453125 12.705078 L 1.0019531 13.080078 L 0.4765625 13.570312 C 0.3105625 13.728312 0.21484375 13.948781 0.21484375 14.175781 C 0.21484375 14.519781 0.43085937 14.834078 0.75585938 14.955078 L 1.4238281 15.205078 L 1.0097656 15.78125 C 0.90476563 15.92325 0.84960938 16.093484 0.84960938 16.271484 C 0.84960938 16.682484 1.1467344 17.028797 1.5527344 17.091797 L 2.2558594 17.205078 L 1.9628906 17.849609 C 1.9108906 17.958609 1.8828125 18.079172 1.8828125 18.201172 C 1.8828125 18.660172 2.2560937 19.033203 2.7460938 19.033203 L 3.4570312 19.009766 L 3.2988281 19.689453 C 3.2878281 19.732453 3.2734375 19.850531 3.2734375 19.894531 C 3.2734375 20.353531 3.6474687 20.726562 4.1054688 20.726562 C 4.1444688 20.726562 4.259875 20.712125 4.296875 20.703125 L 4.9902344 20.541016 L 4.9667969 21.287109 C 4.9667969 21.864109 5.620625 22.279969 6.140625 22.042969 C 6.140625 22.042969 6.1425781 22.041016 6.1425781 22.041016 L 6.7910156 21.744141 L 6.90625 22.453125 C 7.00325 23.021125 7.6988437 23.346187 8.2148438 22.992188 L 8.7929688 22.574219 L 9.0429688 23.242188 C 9.2439688 23.785187 10.047641 23.938531 10.431641 23.519531 L 10.917969 22.998047 L 11.296875 23.611328 C 11.451875 23.854328 11.714953 24 12.001953 24 C 12.286953 24 12.549031 23.854469 12.707031 23.605469 L 13.082031 22.998047 L 13.570312 23.523438 C 13.965312 23.942437 14.741031 23.796141 14.957031 23.244141 L 15.207031 22.574219 L 15.785156 22.992188 C 16.262156 23.335187 17.00375 23.026219 17.09375 22.449219 L 17.208984 21.744141 L 17.853516 22.037109 C 18.363516 22.274109 19.035156 21.868906 19.035156 21.253906 L 19.009766 20.539062 L 19.675781 20.693359 C 19.722781 20.707359 19.847484 20.722656 19.896484 20.722656 C 20.355484 20.722656 20.728516 20.349625 20.728516 19.890625 C 20.728516 19.852625 20.716031 19.738172 20.707031 19.701172 L 20.542969 19.005859 L 21.289062 19.03125 C 21.746062 19.03125 22.119141 18.659172 22.119141 18.201172 C 22.119141 18.082172 22.093922 17.965422 22.044922 17.857422 C 22.043922 17.856422 22.042969 17.854516 22.042969 17.853516 L 21.746094 17.203125 L 22.457031 17.089844 C 22.856031 17.018844 23.148438 16.671578 23.148438 16.267578 C 23.148437 16.094578 23.095188 15.928203 22.992188 15.783203 L 22.574219 15.203125 L 23.244141 14.953125 C 23.567141 14.831125 23.783203 14.518828 23.783203 14.173828 C 23.783203 13.942828 23.686531 13.719406 23.519531 13.566406 L 22.996094 13.078125 L 23.601562 12.705078 C 23.851562 12.553078 24 12.288094 24 11.996094 C 24 11.704094 23.850563 11.439156 23.601562 11.285156 C 23.585563 11.276156 23.569734 11.267766 23.552734 11.259766 L 22.996094 10.912109 L 23.519531 10.425781 C 23.684531 10.269781 23.779297 10.049312 23.779297 9.8203125 C 23.779297 9.4783125 23.565234 9.1640625 23.240234 9.0390625 L 22.572266 8.7890625 L 22.990234 8.2089844 C 23.093234 8.0659844 23.146484 7.8986094 23.146484 7.7246094 C 23.146484 7.3136094 22.852266 6.9682969 22.447266 6.9042969 L 21.742188 6.7890625 L 22.037109 6.1425781 C 22.159109 5.8815781 22.134656 5.5700781 21.972656 5.3300781 C 21.810656 5.0910781 21.543906 4.9478437 21.253906 4.9648438 L 20.539062 4.9882812 L 20.703125 4.296875 C 20.712125 4.258875 20.726562 4.1444687 20.726562 4.1054688 C 20.726562 3.6464688 20.351578 3.2734375 19.892578 3.2734375 C 19.853578 3.2734375 19.739172 3.2859219 19.701172 3.2949219 L 19.007812 3.4570312 L 19.033203 2.7109375 C 19.033203 2.1339375 18.377375 1.7180781 17.859375 1.9550781 C 17.858375 1.9550781 17.856469 1.9570312 17.855469 1.9570312 L 17.207031 2.2539062 L 17.091797 1.5410156 C 16.990797 0.96901563 16.252156 0.67285938 15.785156 1.0058594 L 15.205078 1.4238281 L 14.953125 0.74804688 C 14.742125 0.21004687 13.956359 0.060515625 13.568359 0.47851562 L 13.082031 1.0019531 L 12.705078 0.39257812 C 12.551578 0.14607812 12.276625 0.0234375 12 0.0234375 z M 11.996094 1.1523438 L 12.451172 1.8867188 C 12.534172 2.0197188 12.708234 2.1090469 12.865234 2.1230469 C 12.953234 2.1300469 13.040844 2.1375312 13.089844 2.1445312 C 13.254844 2.1675312 13.413391 2.1102344 13.525391 1.9902344 L 14.113281 1.359375 L 14.414062 2.1660156 C 14.471063 2.3160156 14.652641 2.4452812 14.806641 2.4882812 C 14.872641 2.5062812 14.937891 2.5242031 14.962891 2.5332031 C 15.121891 2.6002031 15.306266 2.5795156 15.447266 2.4785156 L 16.148438 1.9746094 L 16.287109 2.8261719 C 16.313109 2.9821719 16.410781 3.1174531 16.550781 3.1894531 L 16.792969 3.3203125 C 16.929969 3.3963125 17.097234 3.4018906 17.240234 3.3378906 L 18.023438 2.9804688 L 17.994141 3.8457031 C 17.988141 4.0037031 18.082078 4.1724844 18.205078 4.2714844 L 18.386719 4.421875 C 18.508719 4.524875 18.672172 4.5623438 18.826172 4.5273438 L 19.667969 4.3261719 L 19.490234 5.0742188 C 19.414234 5.2462187 19.439312 5.4544688 19.570312 5.6054688 C 19.625312 5.6684687 19.678234 5.7335 19.740234 5.8125 C 19.839234 5.9385 19.995344 5.9999063 20.152344 6.0039062 L 21.015625 5.9726562 L 20.660156 6.7558594 C 20.594156 6.8998594 20.600734 7.0660781 20.677734 7.2050781 C 20.714734 7.2690781 20.750734 7.3384063 20.802734 7.4414062 C 20.874734 7.5844063 21.011922 7.6839844 21.169922 7.7089844 L 22.019531 7.8476562 L 21.517578 8.5449219 C 21.425578 8.6729219 21.399266 8.8363281 21.447266 8.9863281 L 21.523438 9.2460938 C 21.566437 9.3990937 21.681078 9.522125 21.830078 9.578125 L 22.638672 9.8828125 L 22.007812 10.470703 C 21.893812 10.576703 21.834563 10.733672 21.851562 10.888672 L 21.876953 11.160156 C 21.889953 11.317156 21.977328 11.459969 22.111328 11.542969 L 22.845703 11.998047 L 22.113281 12.451172 C 21.979281 12.534172 21.891906 12.677938 21.878906 12.835938 L 21.853516 13.109375 C 21.838516 13.263375 21.895766 13.417438 22.009766 13.523438 L 22.640625 14.113281 L 21.832031 14.416016 C 21.686031 14.469016 21.574297 14.588328 21.529297 14.736328 L 21.447266 15.009766 C 21.401266 15.158766 21.428531 15.320266 21.519531 15.447266 L 22.021484 16.146484 L 21.171875 16.285156 C 21.015875 16.311156 20.881594 16.408828 20.808594 16.548828 L 20.679688 16.787109 C 20.602687 16.925109 20.595156 17.092328 20.660156 17.236328 L 21.017578 18.023438 L 20.154297 17.992188 C 19.985297 17.994187 19.843141 18.056641 19.744141 18.181641 L 19.572266 18.390625 C 19.472266 18.511625 19.434703 18.672219 19.470703 18.824219 L 19.673828 19.667969 L 18.828125 19.470703 C 18.672125 19.429703 18.508719 19.472125 18.386719 19.578125 C 18.321719 19.635125 18.253547 19.688188 18.185547 19.742188 C 18.061547 19.840187 17.992047 19.994344 17.998047 20.152344 L 18.027344 21.015625 L 17.244141 20.658203 C 17.101141 20.593203 16.935875 20.600781 16.796875 20.675781 L 16.554688 20.806641 C 16.414688 20.878641 16.316016 21.013922 16.291016 21.169922 L 16.152344 22.021484 L 15.453125 21.519531 C 15.323125 21.426531 15.157813 21.399219 15.007812 21.449219 L 14.751953 21.527344 C 14.598953 21.570344 14.475922 21.683031 14.419922 21.832031 L 14.117188 22.640625 L 13.529297 22.009766 C 13.420297 21.892766 13.264469 21.834516 13.105469 21.853516 L 12.835938 21.880859 C 12.679938 21.894859 12.540031 21.980281 12.457031 22.113281 L 12.001953 22.849609 L 11.546875 22.115234 C 11.463875 21.982234 11.323969 21.895859 11.167969 21.880859 L 10.896484 21.853516 C 10.877484 21.851516 10.858844 21.849609 10.839844 21.849609 C 10.701844 21.849609 10.568609 21.906719 10.474609 22.011719 L 9.8867188 22.642578 L 9.5839844 21.835938 C 9.5279844 21.685937 9.4069063 21.572297 9.2539062 21.529297 L 8.9941406 21.449219 C 8.8411406 21.401219 8.6787813 21.428484 8.5507812 21.521484 L 7.8515625 22.023438 L 7.7128906 21.171875 C 7.6868906 21.015875 7.5892187 20.880594 7.4492188 20.808594 L 7.2109375 20.681641 C 7.0709375 20.601641 6.9037656 20.596109 6.7597656 20.662109 L 5.9746094 21.019531 L 6.0058594 20.154297 C 6.0118594 19.996297 5.9404062 19.845094 5.8164062 19.746094 L 5.6132812 19.578125 C 5.4922813 19.475125 5.3288281 19.430656 5.1738281 19.472656 L 4.3300781 19.675781 L 4.5292969 18.828125 C 4.5652969 18.673125 4.5277813 18.512578 4.4257812 18.392578 L 4.2539062 18.183594 C 4.1549062 18.059594 4.0067031 17.989141 3.8457031 17.994141 L 2.9824219 18.025391 L 3.3417969 17.240234 C 3.4077969 17.095234 3.3993125 16.927109 3.3203125 16.787109 C 3.2773125 16.710109 3.2353125 16.633688 3.1953125 16.554688 C 3.1223125 16.412687 2.9870781 16.314062 2.8300781 16.289062 L 1.9785156 16.150391 L 2.4824219 15.453125 C 2.5754219 15.324125 2.6017344 15.157859 2.5527344 15.005859 C 2.5247344 14.922859 2.4986094 14.836953 2.4746094 14.751953 C 2.4316094 14.598953 2.3169688 14.475922 2.1679688 14.419922 L 1.3613281 14.117188 L 1.9921875 13.527344 C 2.1061875 13.420344 2.1585781 13.213594 2.1425781 13.058594 L 2.1210938 12.837891 C 2.1080937 12.679891 2.0217188 12.536125 1.8867188 12.453125 L 1.1523438 11.998047 L 1.8886719 11.542969 C 2.0226719 11.459969 2.1100469 11.285906 2.1230469 11.128906 C 2.1310469 11.040906 2.1394844 10.95625 2.1464844 10.90625 C 2.1694844 10.74425 2.1121875 10.581703 1.9921875 10.470703 L 1.3613281 9.8828125 L 2.1679688 9.5800781 C 2.3159688 9.5250781 2.4296562 9.4039063 2.4726562 9.2539062 L 2.5527344 8.9921875 C 2.6017344 8.8411875 2.5754219 8.675875 2.4824219 8.546875 L 1.9785156 7.8476562 L 2.828125 7.7089844 C 2.981125 7.6849844 3.1418438 7.5373906 3.2148438 7.4003906 C 3.2528438 7.3303906 3.2905469 7.2595625 3.3105469 7.2265625 C 3.3975469 7.0845625 3.4088437 6.9078594 3.3398438 6.7558594 L 2.9804688 5.9726562 L 3.8457031 6.0039062 C 4.0097031 6.0209063 4.1559063 5.9375 4.2539062 5.8125 L 4.4238281 5.6074219 C 4.5258281 5.4854219 4.5633437 5.324875 4.5273438 5.171875 L 4.3261719 4.3261719 L 5.1699219 4.5273438 C 5.3239219 4.5623438 5.4893281 4.524875 5.6113281 4.421875 L 5.8164062 4.2539062 C 5.9404063 4.1559062 6.0099063 4.00175 6.0039062 3.84375 L 5.9746094 2.9785156 L 6.7558594 3.3359375 C 6.8998594 3.4009375 7.0650781 3.3963594 7.2050781 3.3183594 L 7.4414062 3.1933594 C 7.5844062 3.1213594 7.6849375 2.9841719 7.7109375 2.8261719 L 7.8496094 1.9765625 L 8.546875 2.4785156 C 8.674875 2.5705156 8.8695781 2.5870156 9.0175781 2.5410156 L 9.2460938 2.4746094 C 9.4000938 2.4316094 9.5240781 2.3160156 9.5800781 2.1660156 L 9.8828125 1.359375 L 10.472656 1.9902344 C 10.580656 2.1062344 10.735625 2.1664844 10.890625 2.1464844 L 11.158203 2.1210938 C 11.316203 2.1090937 11.459969 2.0217188 11.542969 1.8867188 L 11.996094 1.1523438 z M 12.011719 2.0175781 C 11.755719 2.0175781 11.510312 2.1130625 11.320312 2.2890625 L 11.296875 2.3125 C 11.118875 2.5015 11.021484 2.7488125 11.021484 3.0078125 C 11.021484 3.5648125 11.472297 4.015625 12.029297 4.015625 C 12.272297 4.015625 12.506984 3.9298594 12.708984 3.7558594 C 12.906984 3.5668594 13.021484 3.2993906 13.021484 3.0253906 C 13.021484 2.4683906 12.567719 2.0175781 12.011719 2.0175781 z M 13.476562 4.0039062 C 13.315563 3.9729063 13.152156 4.0237187 13.035156 4.1367188 L 11.910156 5.1464844 L 10.972656 4.1542969 C 10.858656 4.0342969 10.693344 3.9738594 10.527344 4.0058594 L 10.480469 4.0136719 L 10.466797 4.015625 C 8.7497969 4.351625 7.2180625 5.2296875 6.0390625 6.5546875 C 5.9080625 6.7006875 5.8760312 6.9098438 5.9570312 7.0898438 C 6.0380313 7.2698438 6.2151094 7.3847656 6.4121094 7.3847656 L 14.371094 7.3847656 C 14.510094 7.3847656 15.141125 7.4609375 15.703125 7.8359375 C 16.139125 8.1269375 16.658203 8.6370156 16.658203 9.4160156 C 16.658203 10.007016 16.219563 10.588531 15.351562 11.144531 C 15.216563 11.231531 15.150578 11.393688 15.142578 11.554688 C 15.133578 11.717687 15.223609 11.887281 15.349609 11.988281 C 15.904609 12.429281 16.158469 12.631094 16.355469 13.746094 C 16.468469 14.253094 17.067187 14.550781 17.617188 14.550781 C 17.672188 14.550781 17.725344 14.547969 17.777344 14.542969 C 18.626344 14.445969 19.096563 13.896141 19.101562 12.994141 L 19.480469 12.994141 C 19.742469 12.994141 19.959516 12.79225 19.978516 12.53125 C 19.993516 12.33225 20.001 12.131594 20 11.933594 C 20 11.661594 19.986937 11.396812 19.960938 11.132812 C 19.942937 10.954813 19.831969 10.797609 19.667969 10.724609 L 18.324219 10.123047 C 18.311219 10.116047 18.269859 10.027484 18.255859 10.021484 L 18.974609 8.3847656 C 19.038609 8.2397656 19.010641 8.0344844 18.931641 7.8964844 C 17.766641 5.8684844 15.777563 4.4499062 13.476562 4.0039062 z M 13.537109 5.0390625 C 15.372109 5.4650625 16.960078 6.6037969 17.955078 8.2167969 L 17.621094 8.9746094 C 17.452094 7.9496094 16.717813 7.3128594 16.257812 7.0058594 C 15.521812 6.5158594 14.702094 6.3867188 14.371094 6.3867188 L 7.6621094 6.3867188 C 8.4761094 5.7347187 9.4165469 5.2779219 10.435547 5.0449219 L 11.183594 5.8339844 C 11.573594 6.2449844 12.268688 6.2631875 12.679688 5.8671875 L 13.537109 5.0390625 z M 4 8 C 3.449 8 3 8.448 3 9 C 3 9.132 3.0261719 9.2648125 3.0761719 9.3828125 C 3.2311719 9.7578125 3.594 10 4 10 C 4.551 10 5 9.552 5 9 C 5 8.851 4.9644844 8.7005469 4.8964844 8.5605469 C 4.7274844 8.2155469 4.384 8 4 8 z M 20.025391 8 C 19.895766 7.9965 19.765625 8.0184062 19.640625 8.0664062 C 19.391625 8.1614062 19.195891 8.34975 19.087891 8.59375 C 19.029891 8.72175 19 8.8599531 19 9.0019531 C 19 9.5539531 19.449 10.001953 20 10.001953 C 20.551 10.001953 21 9.5539531 21 9.0019531 C 21 8.6089531 20.76825 8.2508906 20.40625 8.0878906 C 20.28475 8.0338906 20.155016 8.0035 20.025391 8 z M 5.8691406 8.6757812 C 5.7001406 8.6757812 5.5441719 8.7583906 5.4511719 8.9003906 C 5.3581719 9.0423906 5.3421563 9.2219531 5.4101562 9.3769531 L 5.6113281 9.8320312 C 5.6053281 9.9150312 5.6163906 10.000172 5.6503906 10.076172 L 4.3417969 10.662109 C 4.1797969 10.734109 4.0678281 10.887453 4.0488281 11.064453 C 4.0178281 11.350453 4.0019531 11.641547 4.0019531 11.935547 C 4.0019531 12.696547 4.1075938 13.460484 4.3085938 14.146484 C 4.3715938 14.359484 4.5651094 14.505859 4.7871094 14.505859 L 6.9335938 14.505859 C 7.2095938 14.505859 7.4326406 14.281859 7.4316406 14.005859 L 7.4316406 9.1757812 C 7.4316406 8.8997813 7.2076406 8.6757812 6.9316406 8.6757812 L 5.8691406 8.6757812 z M 10.302734 8.7265625 C 10.026734 8.7265625 9.8027344 8.9505625 9.8027344 9.2265625 L 9.8027344 10.650391 C 9.8027344 10.926391 10.026734 11.150391 10.302734 11.150391 L 12.648438 11.150391 C 13.610438 11.150391 14.256859 10.678562 14.255859 9.9765625 C 14.255859 9.0345625 13.197031 8.7265625 12.832031 8.7265625 L 10.302734 8.7265625 z M 12.816406 9.7246094 C 12.903406 9.7326094 13.256859 9.8332813 13.255859 9.9882812 C 13.233859 10.034281 13.021391 10.150391 12.650391 10.150391 L 10.802734 10.150391 L 10.802734 9.7265625 L 12.816406 9.7246094 z M 17.365234 10.53125 C 17.473234 10.74125 17.65 10.914578 17.875 11.017578 L 18.988281 11.515625 C 18.996281 11.654625 19.000953 11.793594 19.001953 11.933594 L 19.001953 11.994141 L 18.710938 11.994141 C 18.363938 11.994141 18.103516 12.263094 18.103516 12.621094 L 18.103516 12.978516 C 18.103516 13.463516 17.938969 13.518828 17.667969 13.548828 C 17.527969 13.564828 17.385266 13.511703 17.322266 13.470703 C 17.138266 12.483703 16.853688 12.009609 16.429688 11.599609 C 16.848687 11.262609 17.160234 10.90725 17.365234 10.53125 z M 6.4335938 10.707031 L 6.4335938 13.505859 L 5.1757812 13.505859 C 5.0617813 13.007859 5.0009531 12.472547 5.0019531 11.935547 C 5.0019531 11.773547 5.0085312 11.612125 5.0195312 11.453125 L 6.0625 10.986328 C 6.2075 10.921328 6.3335938 10.824031 6.4335938 10.707031 z M 10.298828 12.195312 C 10.022828 12.195312 9.7988281 12.419313 9.7988281 12.695312 L 9.7988281 14.080078 C 9.7988281 14.356078 10.022828 14.580078 10.298828 14.580078 L 11.707031 14.580078 L 11.707031 15.919922 L 5.9628906 15.919922 C 5.7738906 15.919922 5.6084375 16.036078 5.5234375 16.205078 C 5.4384375 16.373078 5.4622187 16.585328 5.5742188 16.736328 C 5.7832187 17.019328 6.0138594 17.290016 6.2558594 17.541016 C 6.3768594 17.667016 6.5527031 17.722594 6.7207031 17.683594 L 7.8046875 17.449219 C 7.8826875 17.472219 7.9669219 17.477031 8.0449219 17.457031 L 8.3515625 18.896484 C 8.3835625 19.050484 8.4849531 19.178141 8.6269531 19.244141 C 9.6869531 19.742141 10.818953 19.996094 12.001953 19.996094 C 13.153953 19.996094 14.265734 19.754344 15.302734 19.277344 C 15.446734 19.211344 15.549031 19.082734 15.582031 18.927734 L 15.875 17.539062 C 15.881 17.521063 15.949125 17.460406 15.953125 17.441406 L 17.242188 17.720703 C 17.412188 17.758703 17.584078 17.703078 17.705078 17.580078 C 17.961078 17.317078 18.196828 17.040375 18.423828 16.734375 C 18.519828 16.618375 18.563297 16.461734 18.529297 16.302734 C 18.470297 16.034734 18.201641 15.866922 17.931641 15.919922 L 14.876953 15.919922 C 14.721953 15.919922 14.363719 15.495641 14.261719 15.181641 C 14.199719 15.013641 14.09825 14.505922 14.03125 14.169922 C 13.98525 13.935922 13.942063 13.728188 13.914062 13.617188 C 13.654063 12.568188 12.878281 12.195312 12.238281 12.195312 L 10.298828 12.195312 z M 10.800781 13.195312 L 12.240234 13.195312 C 12.443234 13.195312 12.803266 13.282328 12.947266 13.861328 C 12.973266 13.965328 13.010734 14.153234 13.052734 14.365234 C 13.159734 14.903234 13.242359 15.302812 13.318359 15.507812 C 13.461359 15.950812 14.052906 16.921875 14.878906 16.921875 L 15.0625 16.921875 C 14.9925 17.028875 14.940109 17.148297 14.912109 17.279297 L 14.660156 18.466797 C 12.968156 19.170797 10.989344 19.174453 9.2773438 18.439453 L 9.0234375 17.251953 C 8.9984375 17.132953 8.9535781 17.021875 8.8925781 16.921875 L 12.09375 16.921875 C 12.49875 16.921875 12.710938 16.631703 12.710938 16.345703 L 12.710938 14.158203 C 12.710938 13.872203 12.49775 13.582031 12.09375 13.582031 L 10.800781 13.582031 L 10.800781 13.195312 z M 16.984375 17.998047 C 16.472555 18.016682 16 18.452719 16 18.996094 C 16 19.467094 16.32125 19.868656 16.78125 19.972656 C 16.85225 19.988656 16.926 19.996094 17 19.996094 C 17.551 19.996094 18 19.548094 18 18.996094 C 18 18.524094 17.676125 18.122578 17.203125 18.017578 C 17.129625 18.002328 17.057492 17.995385 16.984375 17.998047 z M 7 18 C 6.935 18 6.8705469 18.005578 6.8105469 18.017578 C 6.8015469 18.018578 6.7922031 18.021438 6.7832031 18.023438 C 6.3292031 18.124437 6 18.535 6 19 C 6 19.552 6.449 20 7 20 C 7.065 20 7.1294531 19.994422 7.1894531 19.982422 C 7.1984531 19.981422 7.2077969 19.978562 7.2167969 19.976562 C 7.6707969 19.875563 8 19.465 8 19 C 8 18.448 7.551 18 7 18 z"/></svg>