<svg viewBox="0 0 17 21" version="1.1" xmlns="http://www.w3.org/2000/svg" xmlns:xlink="http://www.w3.org/1999/xlink" xml:space="preserve" xmlns:serif="http://www.serif.com/" style="stroke:currentColor;fill-rule:evenodd;clip-rule:evenodd;stroke-linejoin:round;stroke-miterlimit:2;">
    <g transform="matrix(0.829863,0,0,0.829863,1.69119,2.0264)">
        <path d="M0.62,18.43L0,1.92C-0.019,1.378 0.403,0.913 0.944,0.88L14.984,0.002C15.005,0.001 15.027,-0 15.048,-0C15.599,-0 16.053,0.454 16.053,1.005C16.053,1.005 16.053,1.006 16.053,1.006L16.053,18.995C16.052,19.546 15.599,20 15.047,20C15.032,20 15.017,20 15.002,19.999L1.58,19.396C1.06,19.373 0.64,18.949 0.62,18.429L0.62,18.43Z" style="fill:none;fill-rule:nonzero;stroke-width:0.78px;"/>
    </g>
    <g transform="matrix(0.829863,0,0,0.829863,1.69119,2.0264)">
        <path d="M13.88,0.071L11.948,0.191L11.854,2.458C11.854,2.46 11.854,2.462 11.854,2.464C11.854,2.546 11.922,2.614 12.004,2.614C12.036,2.614 12.068,2.604 12.094,2.584L12.974,1.916L13.718,2.502C13.744,2.523 13.777,2.534 13.811,2.534C13.893,2.534 13.961,2.467 13.961,2.384C13.961,2.383 13.961,2.381 13.961,2.379L13.881,0.071L13.88,0.071ZM12.376,7.661C12.023,7.936 9.387,8.123 9.387,7.732C9.443,6.239 8.775,6.174 8.403,6.174C8.051,6.174 7.457,6.28 7.457,7.08C7.457,7.895 8.325,8.355 9.344,8.895C10.791,9.662 12.544,10.591 12.544,12.927C12.544,15.167 10.724,16.403 8.404,16.403C6.009,16.403 3.916,15.434 4.152,12.075C4.245,11.681 7.29,11.775 7.29,12.075C7.252,13.461 7.568,13.869 8.366,13.869C8.979,13.869 9.257,13.531 9.257,12.963C9.257,12.102 8.353,11.594 7.312,11.01C5.903,10.219 4.245,9.288 4.245,7.151C4.245,5.019 5.711,3.597 8.329,3.597C10.947,3.597 12.376,4.997 12.376,7.661Z" style="fill:none;stroke-width:0.66px;"/>
    </g>
</svg>
