<svg fill="currentColor" xmlns="http://www.w3.org/2000/svg"  viewBox="0 0 24 24"><path d="M 12 0 C 11.918879 0 11.845114 0.024259212 11.777344 0.05859375 C 11.771831 0.061350543 11.765203 0.059527735 11.759766 0.0625 L 1.2597656 5.8125 C 1.2513483 5.8170769 1.2483138 5.8270156 1.2402344 5.8320312 C 1.183738 5.8669621 1.1353754 5.9115254 1.0957031 5.96875 C 1.0869263 5.9813483 1.0759371 5.9905546 1.0683594 6.0039062 C 1.0669489 6.0064007 1.0638733 6.0072376 1.0625 6.0097656 C 1.0234686 6.0807852 1.0083956 6.1566372 1.0058594 6.2324219 C 1.005618 6.2387629 1 6.2436197 1 6.25 L 1 17.75 C 1 17.75638 1.005618 17.761237 1.0058594 17.767578 C 1.0083956 17.843388 1.0234686 17.919215 1.0625 17.990234 C 1.0638986 17.992814 1.0669219 17.993549 1.0683594 17.996094 C 1.0937949 18.04091 1.1355855 18.070299 1.1738281 18.105469 C 1.2021752 18.131415 1.2228573 18.165127 1.2558594 18.183594 C 1.2575295 18.184527 1.2580822 18.186585 1.2597656 18.1875 L 11.759766 23.9375 C 11.765203 23.940472 11.771835 23.938645 11.777344 23.941406 C 11.845114 23.975741 11.918879 24 12 24 C 12.081121 24 12.154886 23.975741 12.222656 23.941406 C 12.228165 23.938645 12.234797 23.940472 12.240234 23.9375 L 22.740234 18.1875 C 22.741918 18.186585 22.74247 18.184527 22.744141 18.183594 C 22.781794 18.162557 22.80634 18.124453 22.837891 18.09375 C 22.870409 18.061747 22.909112 18.037395 22.931641 17.998047 C 22.933584 17.994686 22.937577 17.993657 22.939453 17.990234 C 22.978485 17.919215 22.991604 17.843388 22.994141 17.767578 C 22.994382 17.761237 23 17.75638 23 17.75 L 23 6.25 C 23 6.2436197 22.994382 6.2387629 22.994141 6.2324219 C 22.991653 6.1564986 22.978544 6.080893 22.939453 6.0097656 C 22.93737 6.00596 22.933807 6.0037293 22.931641 6 C 22.926443 5.9910009 22.917858 5.9852195 22.912109 5.9765625 C 22.871407 5.9155944 22.819067 5.8686488 22.759766 5.8320312 C 22.751686 5.8270156 22.748652 5.8170769 22.740234 5.8125 L 12.240234 0.0625 C 12.234797 0.059527735 12.228169 0.061350543 12.222656 0.05859375 C 12.154886 0.024259212 12.081121 0 12 0 z M 11.5 1.34375 L 11.5 4.2109375 L 5.3222656 7.7753906 L 2.5410156 6.25 L 11.5 1.34375 z M 12.5 1.34375 L 21.457031 6.25 L 18.675781 7.7734375 L 12.5 4.2109375 L 12.5 1.34375 z M 12 5.0761719 L 17.648438 8.3359375 L 11.998047 11.429688 L 6.3496094 8.3378906 L 12 5.0761719 z M 2 7.09375 L 5 8.7363281 L 5 15.263672 L 2 16.90625 L 2 7.09375 z M 22 7.09375 L 22 16.90625 L 19 15.263672 L 19 8.7363281 L 22 7.09375 z M 6 9.2832031 L 11.5 12.294922 L 11.5 18.634766 L 6 15.460938 L 6 9.2832031 z M 18 9.2832031 L 18 15.460938 L 12.5 18.634766 L 12.5 12.294922 L 18 9.2832031 z M 5.3242188 16.226562 L 11.5 19.789062 L 11.5 22.65625 L 2.5410156 17.75 L 5.3242188 16.226562 z M 18.675781 16.226562 L 21.458984 17.75 L 12.5 22.65625 L 12.5 19.789062 L 18.675781 16.226562 z"/></svg>