<svg viewBox="0 0 70 70" version="1.1" xmlns="http://www.w3.org/2000/svg" xmlns:xlink="http://www.w3.org/1999/xlink" xml:space="preserve" xmlns:serif="http://www.serif.com/" style="stroke:currentColor;fill-rule:evenodd;clip-rule:evenodd;stroke-linejoin:round;stroke-miterlimit:2;">
    <path d="M38.792,64.531L26.625,56L53.168,56L38.792,64.531ZM29.963,14L56,14L56,54.319L70,46.011L62.344,31.719L70,23.698L60.958,1.385L44.552,0L29.963,14Z" style="fill:none;fill-rule:nonzero;stroke-width:0.6px;"/>
    <path d="M50.888,56L48.125,70L9.406,63.292L0,7.365L17.427,0.073L28.583,6.708L38.792,1.24L60.083,9.406L56,30.096L56,14L14,14L14,56L50.888,56Z" style="fill:none;fill-rule:nonzero;stroke-width:0.6px;"/>
    <path d="M56,20.344L62.344,31.719L70,23.698L64.385,9.844L56,20.344Z" style="fill:none;fill-rule:nonzero;stroke-width:0.6px;"/>
    <rect x="14" y="14" width="42" height="42" style="fill:none;fill-rule:nonzero;stroke-width:0.6px;"/>
    <path d="M34.417,48.65L18.667,48.65L18.667,51.333L34.417,51.333L34.417,48.65ZM34.16,19.25L31.78,28.42L29.12,19.25L26.46,19.25L23.8,28.42L21.42,19.25L17.78,19.25L22.26,35L25.2,35L27.79,25.9L30.31,35L33.32,35L37.8,19.25L34.16,19.25ZM38.5,32.76L40.53,30.31C41.93,31.5 43.47,32.2 45.22,32.2C46.62,32.2 47.53,31.64 47.53,30.73L47.53,30.66C47.53,29.75 46.97,29.33 44.38,28.63C41.23,27.79 39.13,26.95 39.13,23.8L39.13,23.73C39.13,20.86 41.44,18.97 44.66,18.97C46.97,18.97 48.93,19.67 50.54,21L48.72,23.59C47.32,22.61 45.92,22.05 44.59,22.05C43.26,22.05 42.56,22.68 42.56,23.45L42.56,23.52C42.56,24.57 43.26,24.92 45.99,25.62C49.21,26.46 51.03,27.58 51.03,30.38L51.03,30.45C51.03,33.6 48.65,35.35 45.22,35.35C42.77,35.28 40.39,34.44 38.5,32.76Z" style="fill:none;fill-rule:nonzero;stroke-width:0.6px;"/>
</svg>
