<svg fill="currentColor" xmlns="http://www.w3.org/2000/svg"  viewBox="0 0 64 64"><path d="M62,5.06S62,5,62,5a2,2,0,0,0-.1-.39l0-.11A2,2,0,0,0,61.57,4l0,0a2,2,0,0,0-.22-.24l-.1-.07-.05,0-.07,0a2,2,0,0,0-.4-.2l-.06,0a2,2,0,0,0-.48-.09H60a2,2,0,0,0-.41,0l-.1,0a2,2,0,0,0-.47.18h0L3,34.86a2,2,0,0,0,.37,3.65L18,43.18,23.61,59.4l0,.06a2,2,0,0,0,.16.33l.08.12a2,2,0,0,0,.21.25l.09.09a2,2,0,0,0,.34.24l0,0a2,2,0,0,0,.39.16H25a2,2,0,0,0,.46.06h0a2,2,0,0,0,.56-.09l.09,0a2,2,0,0,0,.48-.25l.09-.07.13-.1L38.14,49.64l13.15,4.21a2,2,0,0,0,2.58-1.56L62,5.6s0,0,0,0A2,2,0,0,0,62,5.06ZM30.9,47.24l2.91,1-4.37,4.1Zm19.42,2.09L38.26,45.48h0l-8.07-2.69h0l0,0-.21,0-.14,0h-.39l-.25,0-.13,0-.22.09-.13.06-.19.12-.14.09-.15.14L28,43.4l-.11.15a2,2,0,0,0-.12.18s0,.1-.07.16-.06.11-.08.17v.08l-2.31,8-3.9-11.22s0-.08-.05-.12a2,2,0,0,0-.09-.19l-.1-.16-.12-.16-.13-.14L20.78,40l-.16-.11-.16-.1-.2-.09-.12-.05L9,36.11,51,12.57,32.74,33.69a2,2,0,0,0,3,2.62L56.8,12Z"/></svg>